<svg xmlns="http://www.w3.org/2000/svg" width="1240" height="1240"><path d="M564 10.656c-44.839 5.224-71.684 10.231-106.56 19.875-130.218 36.011-243.631 113.393-326.141 222.527C67.134 337.927 27.814 434.649 12.82 544.5c-2.208 16.183-2.32 19.835-2.32 76v59l2.85 20c1.567 11 3.069 20.359 3.338 20.798.269.438 1.954-3.466 3.745-8.676 16.347-47.557 65.54-75.541 114.481-65.123 9.433 2.007 16.747 4.715 26.896 9.957 8.206 4.238 13.472 8.176 31.857 23.822 7.928 6.746 23.248 14.637 34.833 17.941 6.977 1.989 10.174 2.272 25 2.212 20.256-.082 27.312-1.631 43.138-9.47 22.943-11.364 34.482-28.902 34.514-52.461.016-12.174-2.056-19.501-8.769-31-24.34-41.699-35.886-68.677-44.863-104.823-7.639-30.76-10.003-51.249-9.943-86.177.043-25.057 1.052-39.215 4.045-56.75.442-2.591.272-3.75-.55-3.75-.655 0-.896.476-.537 1.057 1.074 1.738-.43 6.123-1.814 5.292-.933-.56-.928-.371.02.801.683.844 1.042 1.734.798 1.978-.591.591-2.666 11.774-2.713 14.622-.021 1.237-.638 2.25-1.373 2.25-.734 0-1.61.445-1.946.989-.35.566.051.734.941.393.854-.328 1.552-.15 1.552.394 0 .545-.9 1.226-2 1.514-1.1.287-2 .088-2-.443s-.45-.687-1-.347c-.55.34-1 .218-1-.272s1.124-1.492 2.498-2.227c1.375-.736 2.279-1.558 2.009-1.827-.269-.27-.069-.996.444-1.616.584-.703.546-1.675-.103-2.592-.896-1.267-.972-1.258-.557.067.527 1.683-2.665 6.26-3.667 5.258-.343-.343-.617-1.562-.609-2.708.013-1.751.187-1.844 1.095-.583.922 1.282 1 1.255.541-.185-.296-.927-.001-1.904.655-2.171.659-.268.423-.522-.525-.565-1.098-.051-1.512-.617-1.146-1.571.327-.851-.116-1.755-1.031-2.107-2.434-.934-1.917-2.401.846-2.401 1.348 0 2.957.788 3.576 1.75.972 1.512 1.055 1.522.611.079-.29-.944.526-2.791 1.877-4.25 2.27-2.449 2.091-3.784-.201-1.492-.727.727-1.296.75-1.716.069a1.2 1.2 0 01.387-1.646c.559-.345 1.016-1.047 1.016-1.559s-.896-.164-1.992.774c-1.695 1.452-1.77 1.829-.5 2.54.821.459 1.492 1.317 1.492 1.907 0 .646-.674.526-1.692-.3-.931-.754-1.389-.866-1.018-.247.435.727-.763 1.355-3.384 1.774-2.558.409-3.906 1.102-3.648 1.875.225.674.934 1.282 1.575 1.351.642.069 1.617.181 2.167.25.55.069 1 .561 1 1.094 0 .532-.675.709-1.5.393-.825-.317-1.5-.092-1.5.5 0 1.575-3.149.157-5.75-2.589-2.572-2.716-2.964-4.761-.75-3.911 1.02.391 1.5-.054 1.5-1.393 0-1.083-.477-1.969-1.059-1.969s-.721.563-.308 1.25c.438.729-.035.624-1.133-.25-1.036-.825-1.587-1.004-1.224-.397.363.606.014 1.956-.776 3-.815 1.076-1.45 1.359-1.468.653-.032-1.259-3.399-1.222-4.673.052-1.018 1.017-2.359.842-2.359-.308 0-.55.563-.887 1.25-.75.688.138 1.138-.312 1-1-.137-.687.2-1.25.75-1.25s1 .525 1 1.167c0 .641.266.9.592.575.325-.326.114-1.413-.47-2.417-.584-1.004-1.075-1.472-1.092-1.04-.047 1.228-4.03-1.218-4.03-2.475 0-.616.9-.305 2 .69 1.1.995 2 1.317 2 .714s-.45-1.374-1-1.714c-.55-.34-1-1.69-1-3s-.526-2.707-1.17-3.105c-.772-.477-.965-.19-.569.842.416 1.084.083 1.482-1.08 1.294-.925-.149-2.581.16-3.681.688-1.115.534-.672-.171 1-1.594 2.847-2.423 2.806-2.788-.338-3.034-1.52-.119-4.439-6.302-3.306-7.002.407-.251 1.393-.044 2.192.462.996.63 1.06.923.202.934-.687.008-1.25.492-1.25 1.074 0 .582.422.798.939.479.516-.319 1.419.217 2.007 1.191.902 1.494 1.019 1.329.751-1.053-.175-1.553-.901-3.184-1.614-3.625-.806-.498-.917-1.036-.295-1.42.552-.341 1.285.117 1.631 1.018.345.9.915 1.351 1.265 1 .35-.35-.078-1.427-.952-2.393-1.546-1.708-1.732-2.165-1.732-4.256 0-.55-.498-1-1.107-1s-.874.608-.588 1.352c.367.957-.331 1.322-2.391 1.25-1.687-.059-2.91-.655-2.912-1.419-.001-.866.77-1.126 2.248-.76 1.238.307 1.688.3 1-.016-2.206-1.013-1.357-2.575 1-1.841 2.23.694 2.233.681.345-1.433-2.049-2.294-3.152-2.843-2.015-1.003.401.648.181.957-.516.725-.668-.223-1.164-.747-1.103-1.166.061-.418-.581-1.451-1.425-2.296-1.843-1.842-2.051-3.833-.286-2.728.688.43 1.925.794 2.75.809.825.014 1.388.589 1.25 1.276-.137.688.538 1.233 1.5 1.212 1.26-.027.671-.961-2.108-3.34-2.746-2.351-4.62-3.199-6.5-2.941-2.611.357-2.614.35-.3-.662 1.289-.562 2.746-.774 3.239-.469.493.305.656-.072.362-.838-.294-.765.226-2.023 1.156-2.794 1.527-1.267 1.623-1.162 1.004 1.09l-.686 2.492 1.343-2.281c.739-1.255 1.73-1.93 2.202-1.5.472.429.535.219.139-.469-.67-1.164.567-1.74 2.818-1.312.506.096.33-.535-.39-1.403-1.18-1.422-1.451-1.377-2.729.447-1.135 1.621-1.809 1.816-3.373.979-1.076-.576-1.896-.69-1.823-.254.489 2.921-2.368 5.293-3.726 3.095-.4-.646-.234-.831.395-.442 1.34.828 2.498-2.491 1.645-4.713-.345-.9-1.1-1.344-1.677-.987-.589.364-.756.173-.379-.436.369-.597.213-1.368-.346-1.714-1.475-.912-1.25-2.76.234-1.922 1 .564 1 .436 0-.641-1.947-2.098-1.55-4.259.675-3.677 1.401.367 1.77.099 1.355-.982-.487-1.27-.265-1.295 1.533-.173 2.095 1.309 2.095 1.322.123 3.159-1.089 1.015-1.719 2.268-1.399 2.786.319.517-.008.954-.728.972-.821.02-.601.568.588 1.468 1.044.79 2.243 1.223 2.665.962.422-.261.945.058 1.162.709.217.651.937.847 1.601.437 1.8-1.112.443-2.545-1.971-2.08-2.005.386-2.023.317-.387-1.492 1.645-1.817 1.618-1.872-.625-1.295l-2.342.602 2.471-2.588c1.978-2.072 2.876-2.395 4.5-1.617 1.99.954 1.992.942.088-.583-1.068-.855-2.718-1.555-3.667-1.555-.949 0-1.915-.562-2.146-1.25-.333-.989-.749-.979-1.994.049-1.058.872-1.787.954-2.222.25-.356-.577.054-1.049.911-1.049.929 0 1.587-.909 1.629-2.25.067-2.147.11-2.158.93-.25.593 1.38.881 1.527.93.473.038-.841-.631-2.528-1.487-3.75-.856-1.223-1.118-2.223-.581-2.223.536 0 1.686-.273 2.556-.607 1.023-.392 1.582-.06 1.582.941 0 .851.408 1.8.907 2.108.498.309.667-.354.375-1.472-.293-1.118-1.488-2.53-2.657-3.137-1.169-.607-1.794-.75-1.39-.317.701.751-3.495 3.484-5.349 3.484-1.44 0-1.01-4.652.55-5.947 1.113-.924 1.956-.915 3.75.041 2.023 1.078 2.158 1.044 1.073-.272-.683-.828-.908-1.874-.5-2.324.407-.45.179-.495-.509-.099-.688.395-1.25.234-1.25-.359 0-.651.991-.829 2.5-.451 1.54.387 2.5.202 2.5-.481 0-.609-.477-1.108-1.059-1.108s-.746-.507-.363-1.126c.503-.813.188-.843-1.129-.105-1.453.813-2.213.53-3.718-1.383-1.04-1.323-2.363-2.113-2.941-1.756-.586.362-.854.062-.607-.678.243-.73.99-1.51 1.661-1.733.67-.224 1.092-.027.937.437-.301.904.491 1.344 2.419 1.344.933 0 .933-.267 0-1.2-.66-.66-1.2-2.01-1.2-3 0-2.052-1.591-2.43-2.315-.55-.265.688-.434.269-.375-.931.058-1.199.462-1.96.898-1.691 1.653 1.022 2.812-.722 1.772-2.666-.836-1.562-.736-1.806.54-1.316.861.331 1.343.824 1.071 1.097-.273.272.176 1.166.996 1.987 1.323 1.322 1.289 1.649-.298 2.879-1.687 1.308-1.633 1.526.961 3.841 1.512 1.35 2.75 2.899 2.75 3.443s.563 1.313 1.25 1.708c.688.396.919.354.516-.092-.404-.446.046-1.452 1-2.234.953-.783 1.172-1.138.484-.79-2.43 1.231-3.449-.603-1.565-2.817 1.593-1.873 1.603-1.969.077-.788-1.489 1.152-1.833 1.099-2.396-.368-.385-1.003-.079-2.08.738-2.598 1.117-.707 1.047-.886-.354-.899-.963-.008-1.75-.492-1.75-1.074 0-.582.52-.738 1.155-.346.721.446.882.274.43-.457-.398-.644-1.153-.905-1.679-.58-.525.325-.891.22-.812-.234.37-2.13-.2-3.376-1.249-2.729-.715.443-.883.275-.44-.44.986-1.597 2.595-1.449 2.595.238 0 .766.579 1.615 1.286 1.886.756.291 1.285-.253 1.285-1.319 0-.997-.353-1.595-.785-1.328-.432.268-.786.009-.786-.573s.845-1.059 1.878-1.059c1.032 0 2.495-.788 3.25-1.75 1.258-1.605 1.219-1.63-.467-.304-1.658 1.304-1.805 1.255-1.5-.5.186-1.07.789-2.277 1.339-2.681.625-.459.544-.74-.215-.75-1.439-.018-3.493 3.444-2.583 4.354.347.347.058.631-.642.631-.791 0-1.025-.648-.618-1.709.431-1.124-.131-2.352-1.643-3.587-1.265-1.033-1.764-1.604-1.11-1.27.653.335 1.697-.189 2.318-1.163 1.014-1.588 1.083-1.546.673.412-.402 1.915-.177 2.076 1.828 1.314 1.258-.478 2.581-.574 2.942-.214.361.361.324-.207-.081-1.263-.43-1.12-.902-1.42-1.136-.719-.22.659-.828 1.199-1.352 1.199-.562 0-.514-.817.119-2 .589-1.1 1.73-2 2.535-2 1.654 0 1.994-2.555.465-3.5-.55-.34-1-.012-1 .728 0 .741-.9 1.414-2 1.497-4.184.315-1.023-2.477 3.5-3.092.55-.075.997-1.71.994-3.634-.003-2.256-.448-3.41-1.25-3.249-.684.137-1.244-.227-1.244-.809 0-.582-.52-.738-1.155-.346-.716.443-.883.275-.439-.443.472-.764 1.299-.845 2.434-.238 1.281.686 2.308.306 4.044-1.497 1.279-1.329 2.748-2.417 3.265-2.417.516 0 .806-.741.645-1.646-.162-.906.269-1.843.956-2.084.69-.241 1.25.347 1.25 1.313 0 .963.296 1.454.658 1.092.362-.362 1.149-.255 1.75.236.703.575 1.789-.052 3.045-1.759 1.148-1.558 1.324-2.146.427-1.426-1.206.968-1.817.968-2.906 0-1.163-1.035-1.172-.954-.053.524.728.963.874 1.75.324 1.75-1.405 0-3.364-2.548-2.57-3.342.87-.869.423-.833-3.451.278-2.026.581-3.043.581-2.684 0 .318-.515-.097-.936-.922-.936-.825 0-1.777-.449-2.116-.997-.401-.648.326-.639 2.078.027 2.279.867 2.921.7 4.17-1.083 1.074-1.534 2.125-1.944 3.863-1.508 1.41.354 2.387.158 2.387-.479 0-.593-.45-.8-1-.46s-1 .089-1-.558c0-.689.84-.956 2.033-.644 1.802.472 2 .119 1.75-3.112-.208-2.68.114-3.658 1.217-3.698.825-.03 1.813.397 2.196.95.382.552 1.057.643 1.498.201.442-.441-.07-1.441-1.137-2.221-1.066-.78-1.417-1.418-.78-1.418.638 0 .93-.6.649-1.333-.375-.976.271-1.218 2.413-.904 1.608.236 3.248-.094 3.643-.733 1.109-1.795-.246-2.47-2.014-1.003-1.316 1.092-1.53 1.075-1.274-.1.168-.776 2.486-2.249 5.151-3.274 3.509-1.35 4.543-2.165 3.75-2.958-.602-.602-1.077-1.792-1.055-2.645.023-.886.695-.343 1.567 1.267 1.14 2.103 1.244 3.157.411 4.161-.625.753-.72 1.588-.217 1.899.494.305 1.481-.536 2.194-1.868 1.098-2.051 1.62-2.257 3.401-1.344 1.732.889 1.883.846.854-.243-1.824-1.929-1.531-2.808.739-2.215 1.094.286 1.699.989 1.345 1.561-.387.627-.154.739.587.281.906-.56.683-1.269-.846-2.693-2.897-2.7-2.644-4.023.539-2.813 2.154.819 2.514.733 2.044-.492-.314-.818-.133-1.757.402-2.088.535-.331.74-.978.455-1.439-.285-.461.392-.599 1.505-.309 1.519.398 1.756.85.953 1.818-.744.896-.75 1.487-.022 1.937.577.356 1.049.381 1.049.054s1.012-.098 2.25.508c2.209 1.082 2.208 1.068-.093-.789l-2.342-1.891 2.557-1.676c3.307-2.167 3.612-2.12 3.707.574.044 1.269.313 1.662.616.901.296-.741.073-2.316-.495-3.5-1.56-3.249-2.126-6.651-1.106-6.651.498 0 .906.702.906 1.559s.45 1.281 1 .941c.55-.34 1-.141 1 .441s-.477 1.059-1.059 1.059-.767.472-.411 1.049c1.056 1.708 3.335-.849 2.75-3.086-.282-1.08-.066-1.963.481-1.963 1.389 0 3.662 2.911 2.882 3.691-.354.353-.643.117-.643-.524 0-2.281-1.502-1.124-1.64 1.262-.129 2.254.05 2.347 2.5 1.297 1.452-.622 2.784-1.221 2.959-1.331.758-.475-2.418-4.395-3.56-4.395-1.577 0-1.644-1.644-.104-2.595.645-.4.885-.279.543.274-.335.543-.067 1.045.596 1.114.663.07 2.556.361 4.206.647 2.985.517 2.984.514-.25-.605-1.788-.618-3.25-1.557-3.25-2.087 0-.529.739-.679 1.641-.332 1.207.463 1.406.28.75-.69-.49-.726-.103-.462.859.588 1.721 1.876 1.75 1.875 1.75-.03 0-1.574.55-1.857 2.929-1.508 1.999.294 2.759.874 2.393 1.827-.633 1.651 1.252 1.895 2.244.29.478-.774.976-.698 1.653.25.776 1.086.873 1.049.487-.185-.266-.848.088-2.324.787-3.279 1.046-1.43 1.368-1.484 1.82-.305.303.788.29 2.489-.029 3.78-.319 1.29-.274 2.07.099 1.732.372-.337.863-2.08 1.09-3.872.227-1.792 1.319-4.103 2.428-5.136 2.643-2.462 3.439-2.382 2.053.208-1.32 2.467-1.107 2.784 2.108 3.142 1.757.196 2.403-.195 2.312-1.399-.069-.927.413-1.464 1.084-1.207.665.255 1.209 1.1 1.209 1.877 0 .777-.375 1.181-.834.898-.458-.283-.833-.038-.833.544 0 1.483 2.725 1.327 3.338-.191.388-.961.522-.948.583.059.043.72.529 1.031 1.079.691 1.467-.906 1.219-2.5-.389-2.5-1.394 0-3.265-6.679-2.175-7.769.31-.31.564.186.564 1.102 0 .917.788 1.674 1.75 1.682.988.009 1.315.335.75.75-1.743 1.281-1.734 3.539.011 2.869.876-.336 1.34-.202 1.031.297-.308.5.629 1.845 2.083 2.989 1.455 1.144 2.107 2.08 1.451 2.08-.657 0-.919.446-.582.99.387.626 1.086.547 1.903-.216 1.045-.977.893-1.558-.803-3.057l-2.094-1.851 2.583.396c1.602.246 2.584-.074 2.584-.843 0-1.206-2.661-1.158-4.671.083-.548.339-.996-.112-.996-1.002s.45-1.34 1-1c.55.34 1 .141 1-.441 0-2.047 3.675-1.028 7 1.941 3.746 3.344 6.3 4.094 3.533 1.037-1.738-1.921-1.719-1.937.845-.75 1.469.679 2.408 1.786 2.134 2.515-.269.716-.044 1.027.499.691.544-.336.989-.059.989.615 0 .674.286.939.635.59.35-.35-.11-1.775-1.023-3.167-1.649-2.518-1.642-2.531 1.396-2.531 1.788 0 3.293-.62 3.628-1.494.316-.822 1.007-1.227 1.537-.899.53.327.733 1.195.452 1.928-.615 1.603 3.487 1.615 4.61.013.464-.663.74-.54.75.334.008.761 6.429-4.864 14.268-12.5C434.1 106.116 509.186 72.431 595 65.905c16.449-1.251 46.825-.724 62.5 1.083 68.098 7.854 128.423 32.953 182.5 75.933 12.472 9.913 39.07 36.017 49.346 48.428 35.914 43.381 59.86 90.466 72.681 142.912 6.149 25.152 8.8 45.313 9.632 73.239 2.051 68.845-14.532 132.085-50.567 192.834-10.321 17.399-12.228 22.622-12.843 35.172-1.502 30.698 17.344 52.976 53.095 62.761 7.009 1.919 10.547 2.225 25.156 2.174 15.527-.055 17.761-.293 25.782-2.755 16.001-4.911 28.465-12.302 42.883-25.429 40.76-37.106 99.73-37.245 138.175-.326 13.029 12.513 23.046 29.272 27.535 46.069 1.102 4.125 2.031 7.253 2.064 6.95.034-.302 1.156-8.177 2.494-17.5 4.488-31.27 4.748-36.976 4.306-94.45-.406-52.75-.506-55.094-3.109-73-7.867-54.102-20.883-102.896-40.127-150.421-41.238-101.843-111.411-192.505-200.811-259.445C901.968 67.445 808.052 29.063 700 13.374c-18.178-2.639-19.491-2.689-75.5-2.906-31.35-.12-58.575-.036-60.5.188m26 92.399c-64.453 6.971-119.618 29.431-168.406 68.567-13.331 10.693-33.574 30.597-44.101 43.363-9.272 11.245-10.857 12.59-16.611 14.107-5.624 1.482-11.608-.034-16.261-4.12l-3.353-2.944-.613 4.475c-.338 2.461-.227 5.493.246 6.736.473 1.244.876 2.636.896 3.094.02.459.371 1.134.78 1.5.409.367.439.136.067-.514-.372-.649-.148-1.507.497-1.906.869-.537 1.005.55.523 4.181-.479 3.612-.368 4.51.419 3.406.701-.983 1.229-1.116 1.531-.386 1.533 3.698 6.569 10.391 7.422 9.864.557-.345.89-.256.739.198-.369 1.106 3.901 5.314 4.642 4.574.321-.321.583-.072.583.552 0 .648.714.861 1.664.497 1.085-.417 1.423-.249.972.481-.386.624.261 1.63 1.463 2.273 1.692.905 2.34.862 3.013-.2.675-1.065.861-.998.873.318.009 1.014 1.096 1.89 2.765 2.23 4.302.876 13.785 1.004 15.08.204 1.755-1.084 1.409.499-.397 1.82-1.371 1.003-1.317 1.146.426 1.146 1.097 0 1.787-.334 1.535-.743-.253-.408.883-1.437 2.524-2.285 3.281-1.697 5.463-2.081 3.082-.543-1.282.828-1.246.972.25.985.962.008 1.75-.51 1.75-1.152 0-.641.302-.865.67-.496.369.368 1.731-.025 3.028-.875s2.796-1.275 3.33-.945c.535.331.972.124.972-.458 0-.582.477-1.059 1.059-1.059s.785.444.449.987c-.389.629.224.678 1.691.135 2.557-.946 2.268-2.665-.428-2.545-1.334.06-1.475-.229-.617-1.262.819-.988 1.459-1.051 2.435-.241 1.485 1.233 3.765.308 2.858-1.159-.322-.521-1.074-.646-1.671-.277-.668.413-.795.203-.331-.549.572-.926 1.172-.841 2.492.354 1.587 1.436 1.884 1.413 3.403-.266.915-1.012 1.326-2.178.912-2.591-.414-.414-.214-.603.443-.419.657.183 3.225-1.618 5.707-4.002 4.688-4.503 6.923-4.742 6.183-.662-.309 1.705-.045 2.227.935 1.851.943-.362 1.118-1.194.566-2.689-.439-1.191-.604-2.84-.366-3.665.384-1.333.314-1.333-.629 0-.583.825-1.067.993-1.076.372-.021-1.592 2.705-3.663 3.872-2.942.536.332 1.3.076 1.698-.568.452-.731.291-.903-.43-.457-2.036 1.258-1.233-.892 1.095-2.933 2.395-2.099 5.793-2.852 5.454-1.208-.112.542.406 1.208 1.151 1.479.944.344 1.176-.073.763-1.375-.497-1.571-.028-1.887 2.953-1.99 2.719-.093 3.415.217 2.987 1.332-.307.799-.558 1.642-.558 1.872 0 .23-.477.418-1.059.418s-.781-.45-.441-1-.139-1-1.063-1c-1.382 0-1.46.268-.437 1.5 1.326 1.597 3.559 1.991 4.253.75.23-.412.293-.217.139.435-.154.652.258 1.404.914 1.671.851.346.818.509-.115.565-.727.044-.992.592-.596 1.234.475.768.271.88-.61.335-.975-.602-1.148-.356-.655.928.369.96.67 2.321.67 3.025 0 .826.887 1.11 2.5.802 1.459-.279 2.5-.013 2.5.638 0 .615-.562 1.005-1.25.867-.791-.158-1.142.667-.955 2.25.241 2.044.09 2.226-.826 1-.997-1.333-1.076-1.333-.712 0 .225.825.935 1.556 1.576 1.625.642.069 1.617.181 2.167.25.55.069 1 .513 1 .986 0 .474-1.125.647-2.5.384-1.565-.299-2.5-.021-2.5.745 0 .695.67.967 1.552.628.854-.327 1.351-.263 1.105.143-.246.407.153 1.293.886 1.971 1.073.991 1.458.841 1.967-.765.619-1.949 2.49-1.836 2.49.151 0 .55-.45.722-1 .382-.55-.34-1 .035-1 .834 0 .799.675 1.711 1.5 2.028.825.316 1.455 1.602 1.4 2.857-.097 2.222-.12 2.216-.9-.219-.726-2.267-.81-2.3-.9-.357-.113 2.417-3.064 4.034-4.151 2.275-.483-.783-1.264-.841-2.439-.183-1.557.871-1.569 1.028-.119 1.585.885.339 1.609 1.306 1.609 2.149 0 .842.477 1.531 1.059 1.531s.8.419.484.931c-.317.512-.111 1.218.457 1.569.568.351.76 1.079.427 1.618-.387.627-1.071.593-1.899-.095-.956-.793-1.453-.66-1.901.507-.444 1.158-1.06 1.327-2.302.632-1.836-1.028-4.884.211-6.984 2.838-1.052 1.318-1.28 1.288-1.874-.244-.372-.96-1.106-1.479-1.632-1.154-.525.324-.14 1.187.855 1.918 1.523 1.117 2.081 1.083 3.523-.218.942-.849 2.428-1.27 3.302-.935 1.046.402 1.344.214.873-.548-.488-.791-.147-.94 1.075-.472.985.378 2.443.146 3.24-.515 1.134-.942 1.62-.927 2.234.066.598.968.935.878 1.417-.378.347-.906 1.076-1.372 1.618-1.037 1.617.999-1.229 4.665-3.223 4.153-.964-.247-1.5-.041-1.191.457.308.499 1.208.907 2.001.907.793 0 1.441.46 1.441 1.021 0 .562 1.089 1.518 2.421 2.125 2.517 1.147 2.498 3.854-.028 3.854-.766 0-1.393.498-1.393 1.107 0 .629-.731.827-1.694.457-1.59-.61-1.59-.535.002 1.224.933 1.031 1.429 2.142 1.103 2.468-.327.327-.121 1.415.458 2.419.857 1.487.978 1.208.654-1.508-.332-2.776-.121-3.227 1.259-2.697.911.35 1.332.311.935-.086s.056-1.58 1.005-2.629c1.611-1.781 1.617-2.1.081-4.775-1.305-2.274-1.386-3.081-.391-3.907 1.409-1.17 1.353-1.372 1.938 6.927.222 3.151-.09 6.104-.731 6.914-.941 1.189-.776 1.23 1.044.261 1.189-.634 2.345-1.698 2.567-2.364.313-.941.57-.944 1.146-.012.408.661.265 1.201-.317 1.201-.582 0-1.059.873-1.059 1.941s-.421 2.201-.936 2.52c-.515.318-.902 1.357-.859 2.309.043.951-.098 2.349-.314 3.105-.215.756.152 1.575.815 1.819.764.281 1.06-.315.807-1.625-.449-2.333.979-2.836 1.821-.642.301.785-.142 1.998-.984 2.697-1.368 1.136-1.369 1.389-.012 2.381 1.026.75 1.222 1.577.605 2.553-.718 1.135-.916 1.155-.928.096-.008-.74-.917-2.611-2.018-4.159-1.213-1.703-1.739-3.505-1.332-4.565.546-1.422.261-1.644-1.514-1.18-1.253.328-2.788-.03-3.597-.839-1.924-1.924-3.115-1.792-1.491.165 1.083 1.305 1.066 1.726-.098 2.446-.774.478-1.021 1.231-.549 1.674.472.442 1.05.267 1.286-.39.235-.656 1.073-.946 1.863-.643.8.307 1.466-.05 1.505-.806.039-.746.433-.457.877.643.463 1.149.373 2.541-.212 3.273-.742.928-.641 1.128.376.738.766-.294 1.988.418 2.715 1.582.727 1.164.838 1.818.248 1.453-.944-.584-1.237.011-1.007 2.045.036.325-.751 1.211-1.75 1.968-1 .758-1.281 1.392-.626 1.409.655.018 1.505-.476 1.888-1.096.471-.762 1.016-.56 1.676.62.789 1.41 1.141 1.485 1.818.391.611-.989.797-.808.686.665-.137 1.816-3.759 3.121-3.759 1.354 0-1.406-3.981-1.63-5.096-.286-.881 1.061-1.504 1.131-2.526.283-.746-.619-1.066-1.594-.712-2.167.385-.624.155-.739-.577-.287-.916.566-.792 1.226.501 2.654 1.244 1.375 1.354 1.901.398 1.901-.727 0-1.032.289-.679.643.354.353 1.285.109 2.07-.542 1.107-.92 1.542-.896 1.945.107.299.746.564.446.627-.708.102-1.857.183-1.874 1.141-.229.567.974 1.436 1.52 1.932 1.214.496-.306.805.766.689 2.382-.117 1.616-.518 2.75-.891 2.521-.721-.444-2.072 2.951-2.331 5.862-.204 2.278-1.491 3.565-1.491 1.49 0-.876-.562-1.787-1.25-2.023-.687-.237-.496-.32.425-.187.939.137 1.477-.273 1.224-.932-.617-1.609-4.399-1.783-4.399-.203 0 .7.309 1.581.687 1.959 1.006 1.005 1.12 4.646.146 4.646-.458 0-.833-.42-.833-.933 0-.513-.907-1.22-2.015-1.572-1.108-.351-1.775-1.026-1.483-1.498.292-.472.135-1.103-.348-1.402-.483-.298-.828.458-.766 1.681.062 1.223.749 2.224 1.529 2.224.779 0 1.625.625 1.879 1.389.321.961.038 1.133-.916.558-1.171-.705-1.172-.575-.008.861 1.266 1.56.873 2.145-1.196 1.786-.454-.079-.558.287-.233.814.956 1.547 6.47 1.029 5.863-.552-.283-.739-.988-1.053-1.565-.696-.613.379-.753.169-.336-.505 1.038-1.68 3.147-1.415 4.723.595 1.258 1.605 1.219 1.63-.467.304-1.604-1.262-1.812-1.262-1.631 0 .404 2.822-.04 4.058-1.2 3.341-.792-.489-.959-.173-.517.979.396 1.031.1 1.914-.752 2.241-.994.381-1.3 1.827-1.046 4.942.197 2.422-.039 4.649-.526 4.95-.486.3-.71-.358-.497-1.464.213-1.106-.182-2.356-.878-2.777-2.438-1.477-2.598-4.032-.295-4.726 2.141-.645 2.144-.674.181-1.619-1.868-.899-1.852-.934.25-.535 1.429.271 2.25-.064 2.25-.917 0-.74-.9-1.277-2-1.194-1.1.083-2 .531-2 .997 0 .465-.399.599-.887.298-1.58-.976-3.503 2.256-2.244 3.772.612.738.78 1.71.372 2.16-.407.45-.102.448.679-.006 1.053-.611 1.257-.401.791.814-.383.999.038 2.025 1.081 2.633.939.548 1.171 1.01.515 1.027-.656.016-1.019.928-.808 2.025.324 1.681-.117 1.969-2.807 1.828-1.756-.091-4.542.2-6.192.646-1.65.447-2.678.465-2.285.04 1.033-1.116-1.131-4.709-2.533-4.205-.65.234-1.937.038-2.86-.436-2.135-1.096-4.489-.216-4.489 1.679 0 1.27.208 1.274 1.584.028 1.13-1.023 2.088-1.152 3.342-.45.966.541 2.147.742 2.624.447.477-.294.867.608.867 2.005 0 1.909-.404 2.402-1.625 1.98-1.663-.574.417 1.27 5.443 4.827 1.465 1.036 3.543 3.872 4.618 6.303 1.779 4.022 1.926 6.341 1.635 25.693-.319 21.163-.335 21.294-3.005 25.325-4.971 7.506-15.727 10.422-23.606 6.401-8.619-4.399-10.101-8.524-10.262-28.563-.116-14.346-.508-17.844-1.447-12.885a269.03 269.03 0 01-.424 2.214c-.043.205-.864-.245-1.827-1-1.584-1.242-1.62-1.207-.387.367.75.956 1.875 1.486 2.5 1.176.625-.31.263.145-.804 1.011-1.412 1.145-1.548 1.578-.5 1.589 1.207.013 1.217.157.063.889-.803.508-1.052 1.401-.596 2.139.431.696.376 1.028-.121.737-.498-.292-1.805-.168-2.905.275-1.737.699-1.634.814.785.875 2.3.058 2.637.375 1.937 1.82-.467.962-.771 2.724-.676 3.915.121 1.513-.262 1.998-1.27 1.61-1.082-.415-1.14-.741-.232-1.302 1.819-1.124.247-2.862-2.045-2.262-2.141.559-2.77 2.289-.832 2.289.641 0 .931.236.643.524-.947.946-3.689-.66-4.027-2.359-.227-1.144-.56-1.299-1.066-.496-.404.644.035 1.94.977 2.882 1.617 1.617 1.575 1.67-.741.946-1.349-.422-2.771-1.264-3.16-1.872-.389-.608-.572.171-.405 1.73.166 1.559.859 3.18 1.541 3.601.923.571.822.925-.397 1.393-.908.349-1.378.211-1.056-.31.319-.516-.387-1.456-1.569-2.089-1.181-.632-1.874-.706-1.539-.163.335.542-.331 1.232-1.481 1.532-1.754.459-1.878.775-.768 1.963.727.778 2.193 1.188 3.258.909 1.295-.339 1.699-.123 1.22.651-.979 1.585-3.64 1.456-4.987-.241-.61-.769-2.235-1.725-3.61-2.124s-2.166-.373-1.759.057c.408.43.24 1.386-.372 2.124-1.382 1.665.286 1.787 1.931.142.933-.933 1.478-.92 2.45.059 1.002 1.01.903 1.127-.5.593-1.616-.615-2.266.38-1.854 2.841.073.436-.774.308-1.882-.285-1.108-.593-2.014-1.539-2.014-2.102s-.52-.703-1.155-.311c-.768.475-.88.271-.335-.61.589-.954.366-1.151-.795-.706-1.187.456-1.45.193-.994-.994.412-1.074.228-1.372-.551-.89-1.644 1.016-1.456 3.281.33 3.967.825.316 1.5 1.169 1.5 1.894 0 1.517-3.676 2.078-4.532.692-.315-.509.081-.675.879-.368.798.306 1.748.076 2.111-.512.41-.663-.436-1.068-2.232-1.068-1.905 0-2.893-.512-2.893-1.5 0-.825.675-1.5 1.5-1.5s1.163-.337.75-.75c-.412-.412-1.237-.75-1.833-.75-.596 0-1.271-.563-1.5-1.25-.229-.688.296-1.25 1.167-1.25s1.583-.756 1.583-1.68c0-1.203-.894-.706-3.148 1.75-1.732 1.886-2.89 2.693-2.575 1.793.426-1.215.101-1.513-1.261-1.157-1.2.314-1.998-.157-2.309-1.363-.412-1.598-.49-1.615-.591-.128-.064.943.797 2.203 1.912 2.8 2.249 1.204 1.764 3.226-.56 2.334-.913-.35-1.468.041-1.468 1.032 0 1.038.748 1.512 2.14 1.357 1.177-.131 2.375.437 2.662 1.262.42 1.204.238 1.265-.923.307-.937-.772-1.963-.866-2.913-.265-.806.51-2.141.927-2.966.927-1.333 0-1.333-.107 0-.969.825-.533 1.05-1.011.5-1.061-.55-.051-1.788-.243-2.75-.427s-1.75.075-1.75.576c0 .502.563.919 1.25.927 1.251.016-1.053 1.937-2.362 1.97-.937.023.159-14.335 1.189-15.577.498-.601.634-1.364.302-1.695-.531-.532.532-8.593 2.252-17.088.321-1.581.197-2.641-.274-2.355-.471.286-1.451-.122-2.176-.907-1.124-1.215-.924-1.356 1.337-.945 1.928.349 2.517.117 2.148-.846-.28-.731-.044-1.794.525-2.363 1.762-1.762-.016-3.373-2.346-2.126-1.749.936-1.955.831-1.469-.747 1.577-5.127 3.365-14.338 2.785-14.351-.363-.009-.168-.346.435-.75s1.42-2.085 1.816-3.735c.677-2.821.632-2.881-.757-1.011-.813 1.094-1.34 2.219-1.171 2.5.168.281-.322 1.091-1.089 1.8-1.144 1.058-1.395 1.035-1.395-.127 0-.779.648-1.955 1.441-2.613.792-.657 1.194-1.837.893-2.622-.353-.918.115-1.432 1.309-1.442 1.397-.012 1.527-.225.525-.86-1.077-.682-1.107-1.688-.157-5.235.647-2.414 1.584-5.171 2.083-6.126 1.312-2.514 1.115-3.182-.535-1.813-1.239 1.028-1.278.766-.281-1.878.638-1.69 1.737-3.073 2.441-3.073 1.472 0 1.719-1.611.375-2.442-1.041-.643-.254-4.558.917-4.558.428 0 .81-1.012.85-2.25.04-1.238.363-5.12.719-8.629.374-3.695.268-6.145-.253-5.823-.494.305-.898-.312-.898-1.371 0-1.06.326-1.927.725-1.927 1.237 0-2.314-9.124-3.769-9.682-.755-.29-1.123-.933-.817-1.428.812-1.314-8.191-10.241-9.508-9.427-.629.388-.99.112-.835-.639.151-.728-.287-1.211-.975-1.074-.687.138-1.25-.248-1.25-.857s-.698-.839-1.552-.511c-.89.341-1.291.173-.941-.393.336-.544.472-.992.302-.995-.17-.003-3.009-.448-6.309-.988-3.299-.54-6.755-.742-7.68-.449-1.517.482-1.541.866-.25 3.956 2.358 5.644 1.694 9.614-4.095 24.462-9.108 23.362-15.118 46.734-19.164 74.525-2.683 18.431-2.422 63.968.477 83.222 6.721 44.635 20.922 84.695 42.625 120.243 8.232 13.484 12.183 21.69 15.283 31.747 2.502 8.113 2.708 10.093 2.685 25.788-.023 15.552-.254 17.748-2.708 25.782-8.513 27.867-25.455 46.984-53.847 60.755-35.134 17.041-78.211 17.191-113.726.393-12.328-5.83-23.415-13.371-35.1-23.874-15.574-13.999-29.691-19.831-48-19.831-26.899 0-49.827 16.187-58.736 41.468-3.368 9.557-4.205 25.147-1.882 35.041 3.421 14.565 10.647 25.364 26.296 39.297 39.005 34.727 83.628 55.847 135.525 64.142 16.122 2.577 60.442 2.593 76.633.029 37.695-5.972 73.272-19.607 103.179-39.544 15.608-10.405 23.689-16.761 37.186-29.246 5.336-4.935 11.284-9.635 13.218-10.443 10.925-4.564 23.391 3.041 24.348 14.853 1.014 12.516-14.128 66.084-28.362 100.336-11.953 28.764-22.635 48.666-40.977 76.342-13.693 20.662-23.907 34.058-40.024 52.493-18.603 21.28-22.826 30.605-22.869 50.507-.034 16.03 3.243 25.855 12.919 38.727 17.297 23.011 50.795 30.773 77.046 17.854 9.784-4.815 14.811-9.013 26.208-21.885 66.726-75.361 109.202-156.499 133.533-255.08 6.77-27.43 8.074-30.347 16.132-36.076 10.963-7.795 25.375-6.846 35.86 2.36 5.121 4.496 7.113 9.357 11.311 27.6 22.931 99.651 67.54 185.363 137.401 264 14.923 16.797 28.667 24.073 47.555 25.174 20.621 1.202 38.839-6.87 53.428-23.673 5.891-6.786 9.823-9.001 15.975-9.001 5.115 0 8.895 1.463 12.436 4.814 4.151 3.927 5.661 7.445 5.661 13.186 0 6.275-1.43 9.124-8.982 17.899-12.097 14.055-31.258 25.702-50.518 30.708-12.346 3.208-32.48 3.704-44.093 1.086-16.558-3.734-32.063-11.205-43.781-21.098l-6.126-5.172-5.5 1.328c-3.025.73-11.125 1.581-18 1.892-28.076 1.266-51.34-7.988-72.005-28.643-18.227-18.218-27.106-37.911-28.665-63.574-1.251-20.611 3.802-39.347 16.199-60.063l1.878-3.137-5.814-12.289c-14.279-30.182-23.466-55.654-37.273-103.339-.335-1.156-2.246 3.941-4.875 13-9.081 31.297-21.527 64.576-34.471 92.172l-5.085 10.842 4.123 6.787c5.615 9.243 9.858 20.213 12.218 31.588 2.484 11.971 1.991 32.501-1.043 43.513-9.612 34.879-34.505 60.272-68.687 70.069-10.97 3.144-28.509 4.271-39 2.507-14.854-2.499-13.217-2.797-21.5 3.912-9.608 7.782-24.745 15.296-37.5 18.615-12.693 3.303-32.363 3.723-45 .961-35.772-7.818-65.824-35.889-75.394-70.423-6.567-23.698-4.332-48.559 6.351-70.656 4.908-10.151 10.107-17.537 20.05-28.485 18.268-20.114 40.622-51.022 54.556-75.431 7.81-13.681 19.493-37.791 24.989-51.569 3.454-8.659 9.948-26.69 9.948-27.622 0-.136-4.358 2.492-9.685 5.84-13.602 8.549-31.737 17.772-45.815 23.3-6.6 2.592-12.482 5.223-13.072 5.847-.59.624-1.837 4.466-2.773 8.537-.936 4.071-3.449 11.132-5.586 15.692-12.918 27.567-36.155 47.062-65.569 55.013-10.56 2.854-37.87 2.612-49-.435-28.973-7.93-53.046-29.195-64.57-57.039-1.738-4.198-3.286-7.774-3.441-7.946-.155-.172-2.691 1.518-5.635 3.755-14.924 11.341-35.67 18.068-56.066 18.178-5.934.032-10.788.294-10.788.58 0 1.054 10.609 18.226 20.782 33.639 59.392 89.984 140.627 162.455 236.718 211.181 59.393 30.117 124.005 50.013 195.5 60.201l19.5 2.779h119l19.5-2.779c91.646-13.06 174.426-42.923 246.224-88.826 69.404-44.373 127.129-99.144 174.067-165.16 10.792-15.178 32.709-49.168 32.709-50.727 0-.416-6.412-.983-14.25-1.26-11.472-.406-15.963-1.017-23.038-3.133-10.391-3.108-20.846-8.171-29.391-14.232-3.399-2.411-6.365-4.383-6.592-4.383-.227 0-.985 1.913-1.684 4.25-.7 2.337-2.633 6.95-4.295 10.25-12.299 24.408-33.237 41.83-60.25 50.136-8.414 2.586-10.172 2.767-27 2.767-16.738 0-18.616-.19-26.788-2.708-34.892-10.752-60.016-37.119-68.585-71.977l-1.688-6.87-11.003-4.308c-17.183-6.727-39.332-18.25-55.701-28.978l-2.765-1.812 3.95 11.026c19.161 53.491 46.449 99.635 84.068 142.165 12.364 13.978 16.113 19.086 20.939 28.531 6.057 11.856 5.395 19.526-2.265 26.252-4.836 4.246-10.351 5.706-15.903 4.211-6.534-1.759-9.294-4.325-13.851-12.877-2.705-5.077-8.508-12.844-16.304-21.821-52.073-59.962-84.186-120.309-103.094-193.737-5.97-23.183-7.819-33.014-7.03-37.366 2.036-11.222 14.542-18.077 25.005-13.705 1.881.786 8.38 6.127 14.442 11.869 37.076 35.119 83.182 57.897 135.142 66.767 15.899 2.714 50.347 3.728 67.548 1.989 52.148-5.274 100.892-25.829 140.96-59.441 25.914-21.74 34.649-36.868 34.705-60.113.027-11.079-2.001-19.233-7.332-29.479-11.692-22.473-36.967-35.442-62.311-31.972-16.018 2.194-25.75 6.931-40.257 19.596-21.535 18.802-40.112 28.453-65.422 33.988-6.536 1.429-12.553 1.841-26.46 1.813-15.835-.033-19.335-.352-29.1-2.653-27.506-6.482-51.927-20.991-65.75-39.064-19.754-25.829-24.836-59.24-13.666-89.847 1.641-4.497 6.993-14.972 11.893-23.279 22.507-38.153 35.161-71.941 41.986-112.103 3.585-21.103 4.425-34.259 3.855-60.382-.568-26.013-2.197-40.213-7.069-61.618C904.702 247.681 832.32 162.977 736 124.229c-22.142-8.908-46.272-15.407-71.5-19.259-15.919-2.43-59.4-3.548-74.5-1.915m-254 68.338c0 .216.675.652 1.5.969.825.316 1.5.139 1.5-.393 0-.533-.675-.969-1.5-.969s-1.5.177-1.5.393m22 1.892c-1.382 1.126-2.508 3.715-1.615 3.715.212 0 1.122-1.125 2.023-2.5 1.831-2.794 1.767-2.986-.408-1.215m-28.187.398c.721.289 1.584.253 1.916-.079.332-.332-.258-.568-1.312-.525-1.165.048-1.402.285-.604.604m6.016.456c1.248 1.661 6.556 3.293 5.582 1.717-.291-.471-1.312-.856-2.27-.856s-2.372-.562-3.143-1.25c-1.179-1.052-1.206-.99-.169.389m11.504 1.248c0 .763.713 1.247 1.584 1.077.871-.171 1.808-.352 2.083-.403.613-.112-2.269-2.024-3.083-2.046-.321-.008-.584.609-.584 1.372m-28.666 2.28c-.932.932-.832 2.333.166 2.333.459 0 .834-.675.834-1.5 0-1.699-.073-1.76-1-.833m32.697.827c-.316.822-.976 1.246-1.469.941-.492-.304-.895.122-.895.947 0 2.155 1.905 3.028 2.608 1.196.499-1.299.915-1.189 2.58.686 1.853 2.086 1.848 2.028-.072-.877-1.131-1.712-1.77-3.399-1.42-3.75.351-.35.323-.637-.061-.637s-.956.672-1.271 1.494m-37.051 2.472c.203 1.336.891 2.602 1.529 2.815 1.576.525 1.404-.871-.403-3.262-1.454-1.924-1.486-1.912-1.126.447M342 184.059c0 .582.45.781 1 .441s1-.816 1-1.059-.45-.441-1-.441-1 .477-1 1.059m-41.457.872c-.317.512-.111 1.218.457 1.569.568.351.777 1.052.464 1.558-.316.512.208.621 1.184.247.984-.378 1.25-.839.608-1.053-.629-.21-.896-1.027-.593-1.817.604-1.573-1.195-2.001-2.12-.504m17.105-.17c-.259.419.164 1.63.941 2.691.776 1.062 1.411 1.421 1.411.798s-.457-1.415-1.016-1.76c-.559-.346-.758-1.047-.441-1.559.316-.512.35-.931.075-.931-.275 0-.712.342-.97.761m5.852.239c.34.55.816 1 1.059 1s.441-.45.441-1-.477-1-1.059-1-.781.45-.441 1m11.5.017c-1.279.812-1.243.955.25.968 1.644.014 2.25 1.208 1.785 3.515-.111.55.145.653.569.23 1.002-1.003 1.283-4.778.311-4.177-.409.253-.895.021-1.08-.515-.214-.621-.878-.629-1.835-.021m10.333.439c0 .801.383 1.22.85.931.467-.289.591-.944.274-1.456-.808-1.308-1.124-1.161-1.124.525m-38.19 2.434c-.746.473-.971 1.094-.5 1.38.471.286 1.437-.108 2.146-.875 1.429-1.546.464-1.842-1.646-.505m5.421.817c-.542 1.425-.428 1.54.56.56.684-.679.991-1.486.683-1.793-.308-.308-.867.247-1.243 1.233m13.436-.913c0 .572.51 1.209 1.134 1.417.713.238.435 1.083-.75 2.278-1.442 1.453-1.512 1.759-.301 1.3.946-.357 1.584-.068 1.584.718 0 .928-.626 1.079-2.119.511-1.678-.638-2.119-.426-2.119 1.015 0 1.001.302 1.633.672 1.405.37-.229 1.228.254 1.908 1.073 1.034 1.246.848 1.502-1.137 1.568-1.304.043-1.795.311-1.089.594.706.284 2.004.239 2.886-.1 1.43-.548 1.4-.839-.279-2.694-1.846-2.041-1.844-2.073.114-1.729 1.629.286 1.996-.202 1.996-2.65 0-1.961.458-2.905 1.324-2.725.794.165 1.032-.198.595-.906-.534-.864.186-1.005 2.676-.526 2.397.46 2.961.363 1.905-.329-2.047-1.342-6-1.271-6 .108 0 .776-.464.738-1.5-.122-.906-.752-1.5-.833-1.5-.206m15.543.137c-.317.512-.049 1.256.595 1.654.698.432.904.292.51-.345-.363-.588-.095-1.297.596-1.576.899-.362.917-.529.065-.585-.655-.043-1.45.34-1.766.852m-63.853 1.521c-.798.799-1.803 1.137-2.231.75-.429-.386-.442-.118-.03.597.553.959 1.096 1.01 2.076.196 1.011-.838 1.441-.67 1.8.702.259.992.424.565.365-.947-.124-3.205-.093-3.185-1.98-1.298m18.205.921c1.156 1.394.474 4.973-.798 4.187-.381-.235-1.346.002-2.145.528-1.04.684-.637.82 1.421.478 1.58-.263 2.951-.61 3.047-.772 1.317-2.215 2.331-5.794 1.642-5.794-.492 0-1.122.563-1.4 1.25-.403 1-.52 1-.583 0-.043-.687-.584-1.25-1.201-1.25-.822 0-.817.368.017 1.373m21.763 1.177c.279.728 1.145 1.079 1.925.78 1.878-.721 1.79-.999-.508-1.6-1.314-.344-1.764-.084-1.417.82m5.342-.491c0 .582.45.781 1 .441s1-.816 1-1.059-.45-.441-1-.441-1 .477-1 1.059m11-.059c0 .55.45 1 1 1s1-.45 1-1-.45-1-1-1-1 .45-1 1m5.083-.717c.23.156 1.317.943 2.417 1.75 1.85 1.357 1.897 1.336.628-.283-.755-.963-1.843-1.75-2.417-1.75-.574 0-.857.127-.628.283m6.917.776c0 .582.45.781 1 .441s1-.816 1-1.059-.45-.441-1-.441-1 .477-1 1.059m-33 .829c0 1.19 2.316 3.112 3.75 3.112.968 0 1.085-.473.412-1.675-.935-1.671-4.162-2.785-4.162-1.437m-31.394 2.96l-1.894 2.652 2.338-2.222c1.287-1.222 2.139-2.416 1.894-2.652-.244-.237-1.296.763-2.338 2.222m22.375-2.188c.567.281.777.922.466 1.425s-.051.915.577.915c1.484 0 .724-2.302-.861-2.613-.667-.13-.749-.007-.182.273m-28.582 1.59c-.396.688-.351.916.099.509.45-.408 1.534-.183 2.41.5 1.409 1.098 1.434 1.039.22-.509-1.636-2.086-1.8-2.116-2.729-.5m55.144-.319c-.317.512-.118 1.213.441 1.559.559.345 1.016-.074 1.016-.931 0-1.757-.6-2.015-1.457-.628m3.287.819c.495.963 1.085 2.347 1.31 3.077.29.934.995.643 2.386-.983 1.611-1.885 1.643-2.053.173-.912-1.598 1.24-1.864 1.154-2.366-.768-.312-1.19-.98-2.164-1.485-2.164-.551 0-.558.7-.018 1.75m-64.452.448c-.397.641-.235.832.382.45.588-.363 1.25-.117 1.472.547.282.848.603.881 1.079.111.373-.603.02-1.349-.785-1.658-.804-.308-1.771-.061-2.148.55m50.091-.148c-.368.596-.399 1.353-.069 1.683.33.33.607-.037.615-.816.013-1.167.187-1.152.985.083.582.901.975 1.025.985.309.021-1.684-1.716-2.553-2.516-1.259m-31.014 2.867c.024 1.837.594 2.736 1.79 2.827 2.255.169 2.277-1.33.033-2.191-1.336-.512-1.429-.842-.416-1.468 1.062-.656 1.049-.905-.069-1.334-.96-.369-1.363.283-1.338 2.166m14.018-.961c.325.526 1.252.703 2.059.393 2.067-.793 1.824-1.349-.591-1.349-1.132 0-1.793.43-1.468.956M273 198c-.901.582-1.025.975-.309.985.655.008 1.469-.435 1.809-.985.767-1.242.421-1.242-1.5 0m33.172.843c-2.124 1.627-2.185 1.902-.693 3.139.898.746 1.555.943 1.459.437-.491-2.579.124-3.457 1.812-2.589 2.051 1.055 4.25.479 4.25-1.113 0-.795-.336-.781-1.165.048-.887.887-1.424.823-2.25-.269-.931-1.231-1.416-1.182-3.413.347m-38.3.849c-1.168 1.441-1.164 1.566.033.845.974-.587 1.176-.477.66.357-.556.9-1.087.918-2.106.072-.75-.622-2.172-.921-3.161-.665-1.378.358-1.259.494.511.583 1.27.064 2.087.475 1.816.914-.271.439-.086 1.451.413 2.25.711 1.142 1.285 1.205 2.684.295.978-.636 1.608-1.761 1.401-2.5-.208-.739-.395-1.905-.417-2.593-.051-1.616-.192-1.582-1.834.442m30.817.676c-.432 1.577-.539 3.115-.238 3.417 1.043 1.043 1.698-.613 1.362-3.444l-.337-2.841-.787 2.868m-5.689.534c0 1.038 1.902 2.541 2.466 1.948.183-.192-.297-.93-1.067-1.639-.769-.71-1.399-.849-1.399-.309m44.628.598c.69 1.848.6 1.886-1.191.5-1.803-1.396-1.839-1.376-.529.292.976 1.244 1.726 1.474 2.45.75.723-.723.656-1.425-.217-2.292-1.011-1.003-1.112-.855-.513.75M260.5 205c.34.55.816 1 1.059 1s.441-.45.441-1-.477-1-1.059-1-.781.45-.441 1m16.929 1c0 2.367 2.097 2.677 2.957.437.336-.875 1.111-1.248 1.761-.846.739.457.891.28.418-.485-.569-.921-1.074-.929-2.154-.032-1.014.842-1.411.855-1.411.048 0-.617-.354-1.122-.786-1.122-.432 0-.785.9-.785 2m21.432.059l-2.361 2.06 2.75-1.675c1.512-.921 2.75-1.847 2.75-2.059 0-.781-.835-.335-3.139 1.674m18.139-.726c0 .927.777 1.66 1.75 1.652.999-.009 1.321-.336.75-.762a12.294 12.294 0 01-1.75-1.651c-.413-.498-.75-.155-.75.761m10.5-.333c.34.55.816 1 1.059 1s.441-.45.441-1-.477-1-1.059-1-.781.45-.441 1m-72.5 2.109c-1.375 1.136-1.838 1.712-1.029 1.282.81-.431 2.835-.748 4.5-.706 2.116.054 2.346-.059.764-.376-1.245-.248-2.006-.87-1.691-1.38.865-1.4.215-1.099-2.544 1.18M287.5 206c.34.55.156 1-.41 1-.565 0-.786.629-.49 1.399.295.769.056 1.696-.532 2.059-.587.363-1.068 1.083-1.068 1.601s.803.154 1.785-.809c1.987-1.949 2.775-6.25 1.145-6.25-.577 0-.77.45-.43 1m5.858.194c.109.718.593 1.938 1.075 2.711.534.856.504 1.174-.076.815-.524-.323-1.542-.224-2.262.221-.919.568-.979 1.013-.202 1.493.609.376 1.107.222 1.107-.344 0-.565.675-.768 1.5-.452 1.971.757 2.036-2.948.08-4.571-1.105-.917-1.376-.889-1.222.127m9.853.344c-1.081 1.225-.965 1.462.718 1.462 1.374 0 1.827-.474 1.433-1.5-.684-1.782-.544-1.784-2.151.038m-20.573 1.962c-.316.825-.187 1.5.286 1.5.474 0 1.121-.675 1.438-1.5.316-.825.187-1.5-.286-1.5-.474 0-1.121.675-1.438 1.5m15.862.265c-1.048.77-1.837 3.235-1.035 3.235.255 0 .946-.9 1.535-2 1.152-2.153 1.06-2.381-.5-1.235m-20.84 1.678c-.324.844-.099 1.426.501 1.295.599-.131 1.316.387 1.594 1.151.309.851.067 1.119-.625.691-.622-.384-1.13-.27-1.13.254s.64 1.198 1.422 1.498c.783.3 1.642 1.586 1.91 2.857.277 1.319.415.809.32-1.189-.201-4.244-3.071-8.957-3.992-6.557m-16.66-.05c0 .216.698.661 1.552.989.89.341 1.291.173.941-.393-.587-.951-2.493-1.406-2.493-.596m11.882.357a5.707 5.707 0 000 1.5c.065.412-.332.75-.882.75s-1 .45-1 1 .563.887 1.25.75c.688-.137 1.185.553 1.105 1.535-.115 1.418.142 1.547 1.25.628 1.011-.839 1.395-.849 1.395-.035 0 .617.563 1.107 1.25 1.089.725-.02.41-.755-.75-1.75-2.233-1.917-3.446-5.92-1.412-4.663.78.483.964.338.507-.399-.8-1.296-2.532-1.554-2.713-.405m16.5 2.441c-.405.655-.232 1.359.385 1.565.616.205.878 1.132.582 2.059-.448 1.405-.366 1.442.499.219.649-.917.687-1.889.103-2.592-.513-.62-.638-1.422-.276-1.784.362-.362.385-.658.051-.658-.335 0-.939.536-1.344 1.191m-42.03 1.569c.363.588.095 1.297-.596 1.576-.899.362-.917.529-.065.585 1.721.114 2.548-1.656 1.171-2.506-.698-.432-.904-.292-.51.345m6.045 1.407c-.283.458.16.833.985.833s1.732-.375 2.015-.833c.283-.459-.16-.834-.985-.834s-1.732.375-2.015.834m42.062-.1c-.363.586-.445 1.281-.183 1.543s.743-.218 1.069-1.067c.676-1.762.1-2.072-.886-.476m-53 1c-1.026 1.66-.105 1.89 1.33.332.71-.769.849-1.399.309-1.399-.539 0-1.277.48-1.639 1.067m15.23-.373c-.373.603-.02 1.349.785 1.658.804.308 1.771.061 2.148-.55.397-.641.235-.832-.382-.45-.588.363-1.25.117-1.472-.547-.282-.848-.603-.881-1.079-.111m9.811.306c-.34.55-.141 1 .441 1s1.059-.45 1.059-1-.198-1-.441-1-.719.45-1.059 1m-12.167 2.596c0 .772.221 1.183.492.913.27-.271 1.095.01 1.833.622.738.613 1.342.717 1.342.232s-.825-1.397-1.833-2.027c-1.451-.906-1.834-.852-1.834.26m14.882-1.182c.393.467.256 1.802-.305 2.967-.876 1.819-.836 1.894.285.531.718-.873 1.868-1.398 2.555-1.166.688.231 1.25-.142 1.25-.829 0-.688-.296-.954-.658-.592-.362.362-1.374.114-2.25-.551-.876-.664-1.27-.826-.877-.36m15.657 1.25c-1.244 1.508-1.162 1.552.878.465 2.327-1.24 2.9-2.129 1.372-2.129-.482 0-1.495.749-2.25 1.664m52.051-.914c-.042.412-.227 1.54-.412 2.505-.184.965.082 1.496.593 1.181.511-.316.67-.993.353-1.505-.316-.512-.098-.931.484-.931s1.059-.45 1.059-1c0-1.149-1.961-1.385-2.077-.25M264.5 220c.34.55.816 1 1.059 1s.441-.45.441-1-.477-1-1.059-1-.781.45-.441 1m-15 1c-.34.55.084 1 .941 1s1.559-.45 1.559-1-.423-1-.941-1-1.219.45-1.559 1m12.773 2.023c-.08 1.066.277 2.199.794 2.518.516.32.799-.335.628-1.454-.427-2.801-1.245-3.412-1.422-1.064m13.33-.856c.283.458.938.833 1.456.833s.941-.375.941-.833c0-.459-.655-.834-1.456-.834-.801 0-1.224.375-.941.834M246.5 223c-.34.55-.141 1 .441 1s1.059-.45 1.059-1-.198-1-.441-1-.719.45-1.059 1m19.711.538c-1.066 1.208-1.022 1.462.25 1.462.846 0 1.539-.675 1.539-1.5 0-1.824-.15-1.82-1.789.038m-25.608.295c-.283.459.12.834.897.834s1.18-.375.897-.834c-.283-.458-.687-.833-.897-.833-.21 0-.614.375-.897.833m10.336.593c.664.8 1.869 1.201 2.677.891 1.815-.696 1.025-1.596-1.776-2.024-1.744-.266-1.9-.07-.901 1.133m22.061.772c0 1.174.337 1.728.75 1.23.413-.497 1.125-1.185 1.584-1.527.458-.343.121-.896-.75-1.23-1.141-.438-1.584-.01-1.584 1.527m-13 1.195c0 .216.698.661 1.552.989.89.341 1.291.173.941-.393-.587-.951-2.493-1.406-2.493-.596m6 1.048c0 .793.408 1.693.907 2.001.498.309.671-.34.383-1.441-.611-2.335-1.29-2.63-1.29-.56m2.688-.746c-.352.571.204 1.802 1.236 2.736 1.413 1.279 2.064 1.397 2.631.48.484-.782.337-.962-.409-.501-.699.432-1.492-.172-1.99-1.517-.461-1.246-1.11-1.776-1.468-1.198m-31.875 1.988c.721.289 1.584.253 1.916-.079.332-.332-.258-.568-1.312-.525-1.165.048-1.402.285-.604.604m4.79.15c-.283.459.12.834.897.834s1.18-.375.897-.834c-.283-.458-.687-.833-.897-.833-.21 0-.614.375-.897.833m6.476-.142c-.114 1.721 1.656 2.548 2.506 1.171.432-.698.292-.904-.345-.51-.588.363-1.297.095-1.576-.596-.362-.899-.529-.917-.585-.065m7.912 1.08c.606 1.249.822 2.824.481 3.5-.341.676.025.442.814-.521 1.49-1.818 3.27-2.459 2.251-.811-.319.517.341.871 1.466.786 1.174-.089 1.844-.68 1.573-1.389-.306-.795.1-1.014 1.139-.615 1.079.414 1.372.229.885-.559-.679-1.099-5.193-.902-6.374.278-.29.291-1.16-.252-1.932-1.206-1.258-1.553-1.289-1.497-.303.537m185.976-.182c.807 1.051 1.549 2.053 1.65 2.228.1.174.424-.074.718-.55.295-.477-.448-1.479-1.65-2.228-2.066-1.286-2.105-1.256-.718.55m-209.36 3.138c-.334.333-.607 1.056-.607 1.606s.293.707.651.349c.358-.358 1.183.077 1.833.966.935 1.278 1.183 1.318 1.183.19 0-1.717-2.209-3.963-3.06-3.111m32.223 1.023c.495.963.709 2.425.477 3.25-.309 1.096-.138 1.052.637-.164 1.133-1.781.448-4.836-1.086-4.836-.56 0-.572.694-.028 1.75m-27.277 1.165a1.116 1.116 0 00.362 1.532c.521.322 1.21.159 1.532-.362a1.116 1.116 0 00-.362-1.532 1.116 1.116 0 00-1.532.362m16.078-.127c-.341.552.081 1.271.938 1.6.857.329 1.297 1.02.978 1.536-.319.516-.053 1.263.591 1.661.705.436.904.292.5-.361-.369-.597-.213-1.368.346-1.714.559-.345 1.016-1.078 1.016-1.628 0-.55-.5-.691-1.112-.313-.611.378-1.455.132-1.875-.548-.48-.777-.993-.863-1.382-.233m8.828.279c-.363.586-.445 1.281-.183 1.543s.743-.218 1.069-1.067c.676-1.762.1-2.072-.886-.476m-12.968.591c.271.362.034 1.209-.525 1.883-.711.856-.61 1.382.334 1.744 1.391.534 1.728-2.749.387-3.765-.378-.286-.466-.224-.196.138m190.16 2.81c-.346.9-.264 1.411.182 1.135.446-.275 1.548.361 2.449 1.414.947 1.106 1.234 2.164.679 2.507-.529.327-.968.23-.976-.215-.009-.445-.498-.134-1.087.691-.861 1.205-.974 1.057-.578-.751.592-2.703-.862-2.107-1.583.648-.413 1.58-.074 1.85 1.879 1.496 1.311-.238 2.384.053 2.384.646 0 .594.376.847.836.562.991-.612.883-3.629-.192-5.369-.421-.68-.288-1.232.297-1.232.582 0 1.059-.41 1.059-.912 0-.501-.788-.79-1.75-.641-.962.148-2.025-.154-2.361-.672-.336-.519-.893-.207-1.238.693M244 239.059c0 .582-.402.81-.894.507-.491-.304-.829.546-.75 1.89.09 1.517.499 2.088 1.08 1.507 1.019-1.018 1.859-4.963 1.058-4.963-.272 0-.494.477-.494 1.059m-5.823 1.608c.472 2.438 2.37 2.695 2.547.345.09-1.195-.462-2.012-1.359-2.012-.874 0-1.375.704-1.188 1.667m197.636-.984c.721.289 1.584.253 1.916-.079.332-.332-.258-.568-1.312-.525-1.165.048-1.402.285-.604.604m-200.219 2.166c-.392.633-.275 1.151.259 1.151s.847 1.125.696 2.5c-.15 1.375.114 2.5.589 2.5.474 0 .862-.661.862-1.469 0-.946.622-1.268 1.75-.905 1.216.391 1.368.287.5-.341-.688-.497-1.857-1.732-2.598-2.746-.933-1.276-1.565-1.488-2.058-.69m23.981.03c-.31.501.109 1.169.931 1.485.822.315 1.494.164 1.494-.336 0-1.356-1.777-2.198-2.425-1.149m-9.395 1.763c-1.475 2.636-.239 5.122 2.766 5.563 2.369.348 2.689.115 2.234-1.624-.292-1.116-.714-1.479-.939-.805-.532 1.597-2.947 1.579-3.523-.026-.246-.687-.043-2.037.452-3 1.14-2.217.245-2.314-.99-.108m-20.58.959c-.356.927-.411 1.921-.124 2.209.288.288.524-.028.524-.702 0-.674.472-.934 1.049-.578.704.435.622 1.165-.25 2.223-1.16 1.406-1.044 1.439 1.086.303 1.666-.888 2.017-1.498 1.165-2.025-.672-.415-1.149-1.143-1.06-1.618.306-1.649-1.747-1.488-2.39.188m16.9-.601c.34.55.816 1 1.059 1s.441-.45.441-1-.477-1-1.059-1-.781.45-.441 1m6.101.597c-.316.824.037 1.095.963.74.804-.308 2.142.004 2.973.694s1.8.965 2.154.612c.353-.354.091-.643-.583-.643-.674 0-.98-.399-.679-.886.301-.487-.55-1.095-1.891-1.351-1.449-.278-2.64.061-2.937.834m-5.925 3.533c-.6 2.294.621 3.825 3.074 3.855.688.008 1.25-.462 1.25-1.044 0-.582-.45-.781-1-.441s-1.498.31-2.107-.066c-.765-.473-.781-.885-.053-1.335.593-.366.7-1.225.246-1.96-.589-.953-.972-.684-1.41.991M431 246.393c0 .949 2.993 1.427 3.527.563.325-.526-.336-.956-1.468-.956s-2.059.177-2.059.393m-172.128 2.357c-1.269 1.619-1.222 1.64.628.283 1.1-.807 2.188-1.594 2.417-1.75.229-.156-.054-.283-.628-.283s-1.662.787-2.417 1.75M437.5 248c.34.55.816 1 1.059 1s.441-.45.441-1-.477-1-1.059-1-.781.45-.441 1m6.244.75c-.684 1.372-.258 3.579.756 3.916.55.183 1.065-.792 1.144-2.167.135-2.334-1.06-3.434-1.9-1.749M235 250.106c0 1.08 3.691 1.203 4.345.144.255-.412-.619-.815-1.941-.894-1.322-.08-2.404.258-2.404.75m197.459-.039c-.363.586-.445 1.281-.183 1.543s.743-.218 1.069-1.067c.676-1.762.1-2.072-.886-.476m18.541-.008c0 .582.45.781 1 .441s1-.816 1-1.059-.45-.441-1-.441-1 .477-1 1.059m3.079 1.524c.048 1.165.285 1.402.604.605.289-.722.253-1.585-.079-1.917-.332-.332-.568.258-.525 1.312M435 252c-.901.582-1.025.975-.309.985.655.008 1.469-.435 1.809-.985.767-1.242.421-1.242-1.5 0m5.543-.069c-.665 1.076 1.292 2.567 2.19 1.669.33-.33.049-.6-.625-.6s-.948-.45-.608-1c.34-.55.393-1 .118-1s-.759.419-1.075.931m15.916.136c-.363.586-.445 1.281-.183 1.543s.743-.218 1.069-1.067c.676-1.762.1-2.072-.886-.476m-220.792.6c-.367.366-.66 1.154-.652 1.75.009.595.435.421.947-.389.797-1.261 1.025-1.225 1.591.25.824 2.148 2.447 2.256 2.447.163 0-.857-.45-1.281-1-.941-.55.34-1 .141-1-.441 0-1.187-1.317-1.409-2.333-.392m16.009.083c-.426.725.933 5.25 1.577 5.25.175 0 .318-.9.318-2s-.38-2-.844-2c-.465 0-.567-.45-.227-1 .34-.55.393-1 .118-1s-.699.338-.942.75M423 252.378c0 .207.788.995 1.75 1.75 1.586 1.243 1.621 1.208.378-.378-1.307-1.666-2.128-2.195-2.128-1.372m-175.921 1.341c-.045.69-.838.982-1.829.674-1.59-.494-1.599-.446-.093.529 1.08.7 1.457 1.838 1.082 3.272-.511 1.955-.4 2.038.997.752.865-.795 1.503-1.896 1.418-2.446-.085-.55.442-.876 1.17-.725.729.151 1.035-.194.681-.767-.354-.572-1.024-.805-1.489-.518-.465.287-1.073-.043-1.352-.734-.381-.946-.526-.956-.585-.037m181.912 1.052c.606 1.249.786 2.781.401 3.404-.43.695-.254.858.453.42 1.542-.952 1.456-1.837-.4-4.154-1.491-1.861-1.51-1.847-.454.33m-202.178-.088c.721.289 1.584.253 1.916-.079.332-.332-.258-.568-1.312-.525-1.165.048-1.402.285-.604.604m209.281-.007c.37 2.13-.2 3.376-1.249 2.729-.674-.417-.884-.277-.505.336.357.577-.024 1.307-.846 1.623-.822.315-1.487 1.15-1.479 1.855.012.97.228.946.889-.097.48-.758 1.384-1.062 2.009-.676.659.407 1.021.146.862-.622-.17-.817.49-1.212 1.725-1.032 1.514.221 1.665.066.622-.638-.758-.512-1.088-1.4-.734-1.973a1.228 1.228 0 00-.396-1.686c-.573-.354-.977-.273-.898.181M444 255c0 .55.45 1 1 1s1-.45 1-1-.45-1-1-1-1 .45-1 1m-2.686.665c.384.64.133 1.392-.558 1.671-.691.278.057.542 1.661.585 1.604.043 2.729-.048 2.5-.204-.229-.156-1.291-.943-2.359-1.75s-1.628-.943-1.244-.302M233 256.393c0 .216.698.661 1.552.989.89.341 1.291.173.941-.393-.587-.951-2.493-1.406-2.493-.596m9 .666c0 .582.45.781 1 .441s1-.816 1-1.059-.45-.441-1-.441-1 .477-1 1.059M239.5 259c.34.55.816 1 1.059 1s.441-.45.441-1-.477-1-1.059-1-.781.45-.441 1m209.833 1.613c0 .763.375 1.387.834 1.387.458 0 .833-.477.833-1.059s.563-.735 1.25-.34c.688.396.899.334.471-.136-1.294-1.422-3.388-1.331-3.388.148m-12.333.125c0 .223.647 1.052 1.439 1.843 1.251 1.252 1.42 1.199 1.299-.404-.112-1.486-2.738-2.866-2.738-1.439m-202.172 1.313c-.297.797.354 2.349 1.446 3.449l1.985 2-.994-2c-.547-1.1-1.198-2.652-1.446-3.449-.395-1.266-.52-1.266-.991 0m20.251.532c.048 1.165.285 1.402.604.605.289-.722.253-1.585-.079-1.917-.332-.332-.568.258-.525 1.312m-15.476.25c-.283.459.14.834.941.834.801 0 1.456-.375 1.456-.834 0-.458-.423-.833-.941-.833s-1.173.375-1.456.833m3.842 1.712c.069 1.297.52 2.718 1.001 3.157.481.439.57.267.198-.383-.372-.649-.219-1.463.34-1.809 1.419-.877 1.266-2.2-.325-2.81-.905-.348-1.299.252-1.214 1.845m192.16-1.375c.498.805.16.954-1.082.477-1.498-.574-1.599-.443-.591.771.668.805 1.868 1.212 2.667.906 1.116-.428 1.186-.878.304-1.941-1.397-1.684-2.298-1.832-1.298-.213m-186.383 1.491c-1.803.889-3.079 1.815-2.836 2.059.244.243 1.391-.065 2.549-.685 1.158-.62 2.472-.901 2.919-.625.447.276.813-.153.813-.954 0-.801-.038-1.446-.084-1.433-.046.012-1.558.75-3.361 1.638m194.322-.733c-.477.773-.244 1.648.578 2.168 1.204.763.611 1.282-1.224 1.072-.331-.038-.353 1.146-.05 2.631.459 2.245.621 2.364.96.701.224-1.1.753-2.45 1.176-3 .423-.55.452-1.87.065-2.934-.53-1.455-.902-1.613-1.505-.638m-3.563 1.595c-1.057 1.273-.995 1.42.378.893.902-.347 1.641-1.032 1.641-1.523 0-1.286-.579-1.105-2.019.63m9.742 1.177c1.021 1.54 2.312 3.659 2.868 4.708.556 1.05 2.028 2.063 3.271 2.253 1.243.19 1.998-.079 1.678-.597-.32-.517.152-1.352 1.048-1.854 1.493-.835 1.495-.964.021-1.53-.952-.365-1.609-.105-1.609.637 0 .69-.9 1.254-2 1.254s-2-.353-2-.785c0-.432.408-.786.906-.786.499 0 .661-.938.362-2.085-.415-1.584-.748-1.764-1.391-.75-.466.734-.853.881-.862.326-.008-.556-.945-1.591-2.082-2.301-2.058-1.285-2.059-1.278-.21 1.51m-209.473-.141c-1.698 1.843-1.57 3.104.391 3.857 1.288.494 1.401.339.524-.717-.826-.995-.815-1.649.042-2.506.638-.638.965-1.347.726-1.575-.238-.229-.995.194-1.683.941m190.155 1.191c1.192 1.408 1.446 2.25.679 2.25-.807 0-.673.554.392 1.619.891.891 1.935 1.279 2.322.863.386-.416.137-.958-.554-1.204-.691-.247-1.039-.8-.774-1.23.266-.429-.519-1.628-1.744-2.664L428.5 265.5l1.905 2.25m-183.878 1.206c-.325.526-1.325.675-2.223.33-1.091-.418-1.392-.238-.909.544.999 1.616 3.116 1.464 4.605-.33.785-.946.852-1.5.181-1.5-.584 0-1.329.43-1.654.956m-10.433.72c.333 1.917-.198 2.339-1.844 1.466-2.615-1.388-4.41.919-2.62 3.367 1.313 1.795 1.37 1.782 1.37-.318 0-2.21 1.546-3.052 2.17-1.181.185.555.888.126 1.563-.954.795-1.274.873-2.181.222-2.584-.553-.341-.94-.25-.861.204m203.519.507c.289.467.944.591 1.456.274 1.308-.808 1.161-1.124-.525-1.124-.801 0-1.22.383-.931.85m-3.166 1.732c.311.503.157 1.065-.342 1.25-.499.184-.247.944.561 1.687 1.253 1.154 1.422 1.08 1.151-.5-.192-1.12.206-1.743 1.007-1.577.729.151 1.04-.187.691-.75-.348-.564-1.308-1.025-2.133-1.025s-1.246.412-.935.915M240 273.941c0 2.86 1.475 3.276 1.644.463.08-1.322-.258-2.404-.75-2.404s-.894.873-.894 1.941m2.813.742c.721.289 1.584.253 1.916-.079.332-.332-.258-.568-1.312-.525-1.165.048-1.402.285-.604.604m183.694.306c-.35.566.051.734.941.393 1.732-.665 2.049-1.382.611-1.382-.518 0-1.216.445-1.552.989m3.365.761c-1.243 1.586-1.208 1.621.378.378 1.666-1.307 2.195-2.128 1.372-2.128-.207 0-.995.788-1.75 1.75m29.83-.417c-.281.734.121 1.334.893 1.334.773 0 1.405-.6 1.405-1.334 0-.733-.402-1.333-.893-1.333s-1.123.6-1.405 1.333m-208.195.656c-.35.566.051.734.941.393 1.732-.665 2.049-1.382.611-1.382-.518 0-1.216.445-1.552.989m202.145.843c-1.567 1.731-1.532 1.959.573 3.756 1.81 1.545 1.98 1.576.885.162-1.096-1.416-1.114-2.041-.09-3.274 1.849-2.228.599-2.817-1.368-.644M224 276.878c0 1.008 2.892 3.605 3.357 3.015.171-.216-.515-1.181-1.524-2.143-1.008-.962-1.833-1.355-1.833-.872m13.875-.378c-.069.275-.188.837-.265 1.25-.077.413-.541 1.382-1.03 2.155-.611.965-.528 1.181.265.69.635-.392 1.155-.236 1.155.346s.45 1.059 1 1.059.887-.562.75-1.25c-.137-.687.346-1.126 1.074-.975.729.151 1.04-.187.691-.75-.348-.564-1.308-1.025-2.133-1.025s-1.222-.45-.882-1c.34-.55.366-1 .059-1s-.615.225-.684.5m6.524 3.328c1.134 1.133 1.894 1.279 2.664.509.769-.769.316-1.222-1.586-1.586-2.432-.465-2.526-.372-1.078 1.077m185.68.755c.048 1.165.285 1.402.604.605.289-.722.253-1.585-.079-1.917-.332-.332-.568.258-.525 1.312m29.254-.002c0 .764.825 1.652 1.834 1.972 1.008.32 1.833 1.05 1.833 1.621 0 .578-.778.744-1.75.374-1.403-.534-1.502-.417-.5.593 1.918 1.932 3.755-.329 2.37-2.916-1.314-2.457-3.787-3.53-3.787-1.644m-20.758.298c-.31.501.109 1.169.931 1.485.822.315 1.494.164 1.494-.336 0-1.356-1.777-2.198-2.425-1.149m9.695 1.052c.08 1.062.482 1.722.894 1.468.412-.255.495-1.124.185-1.931-.781-2.036-1.252-1.834-1.079.463m-213.706.362c.376.986.935 1.541 1.243 1.233.308-.307.001-1.114-.683-1.793-.988-.98-1.102-.865-.56.56m6.743.124c.106 1.055.7 2.086 1.32 2.292 1.524.508 2.573-2.467 1.175-3.331-.648-.401-.831-.234-.44.398.369.597.247 1.347-.27 1.667-.517.32-1.174-.212-1.459-1.181-.437-1.486-.488-1.462-.326.155m7.742 1.024c-.657.792-1.95 1.199-2.872.905-1.039-.331-1.258-.213-.577.31.605.464 1.357 1.519 1.671 2.344.444 1.167.589 1.099.65-.309.043-.995.54-1.524 1.104-1.176.563.349.901.038.75-.691-.151-.728.321-1.2 1.049-1.049.729.151 1.04-.187.691-.75-.825-1.336-1.042-1.3-2.466.416M433 283.059c0 .582.45.781 1 .441s1-.816 1-1.059-.45-.441-1-.441-1 .477-1 1.059m10.543-.128c-.317.512-.193 1.167.274 1.456.467.289.85-.13.85-.931 0-1.686-.316-1.833-1.124-.525M437 284.059c0 .582-.45.781-1 .441s-1-.141-1 .441.886 1.059 1.969 1.059c1.339 0 1.784-.48 1.393-1.5-.669-1.743-1.362-1.967-1.362-.441m-216.568.83c.407.659.259 1.779-.33 2.488-.779.939-.721 1.29.214 1.29 1.59 0 1.956-3.381.466-4.302-.668-.412-.804-.209-.35.524M240 286.441c0 2.067 2.073 3.059 3.059 1.464.502-.813.358-1.656-.362-2.113-1.818-1.156-2.697-.944-2.697.649m206-.504c0 .649-.445.906-.989.57-.566-.35-.734.051-.393.941.328.854 1.024 1.552 1.548 1.552s.674-.45.334-1-.179-1 .358-1c.536 0 1.202.563 1.48 1.25.317.785.533.831.583.122.043-.62-.596-1.687-1.421-2.372-1.118-.928-1.5-.944-1.5-.063m-10 1.955c0 .674-.445.951-.989.615-.58-.359-.725.074-.351 1.051.592 1.542.705 1.54 1.581-.024.518-.926.676-1.95.351-2.276-.326-.325-.592-.04-.592.634m7.079 1.48c-.065 1.543-.341 1.655-1.567.638-2.301-1.909-3.08 1.369-.997 4.194.931 1.263 1.479 1.621 1.219.796s.189-2.261.999-3.192 1.237-2.281.949-3c-.323-.805-.554-.588-.603.564m-211.346.752c.679.684 1.486.991 1.793.683.308-.308-.247-.867-1.233-1.243-1.425-.542-1.54-.428-.56.56M236.5 290c-.34.55-.254 1.014.191 1.03.445.017.022.489-.941 1.05s-1.75 1.474-1.75 2.029c0 .555.412.754.916.443 1.334-.825 6.308 1.276 5.628 2.377-.317.513-.05 1.258.594 1.656.785.485.901.287.352-.6-.586-.95-.368-1.152.773-.714 1.681.645 4.183-1.491 3.062-2.613-.362-.362-1.51-.658-2.551-.658-1.175 0-1.622-.437-1.179-1.155.489-.79.271-.878-.69-.278-2.753 1.718-3.925 1.328-3.475-1.155.461-2.54.103-3.084-.93-1.412m203.5 1.559c0 .857.457 1.276 1.016.931.559-.346.758-1.047.441-1.559-.857-1.387-1.457-1.129-1.457.628m-219.554.528c-.369.598-.222 1.537.328 2.087.667.667 1.224.638 1.672-.087.37-.598.169-1.087-.446-1.087s-.84-.45-.5-1c.34-.55.393-1 .118-1s-.802.489-1.172 1.087m27.157-.254c-.283.459.12.834.897.834s1.18-.375.897-.834c-.283-.458-.687-.833-.897-.833-.21 0-.614.375-.897.833m186.173 1.417c.251.962 1.192 1.714 2.091 1.671 1.116-.054 1.221-.244.33-.601-1.01-.405-.95-.78.268-1.671 1.347-.985 1.234-1.149-.788-1.149-1.754 0-2.242.449-1.901 1.75m-202.963-.567c.721.289 1.584.253 1.916-.079.332-.332-.258-.568-1.312-.525-1.165.048-1.402.285-.604.604M443.5 293c-.34.55-.141 1 .441 1s1.059-.45 1.059-1-.198-1-.441-1-.719.45-1.059 1m11.665.922c.446 3.227 2.417 3.728 3.884.987.993-1.855.943-2.12-.311-1.639-.822.316-2.037.046-2.701-.598-.934-.907-1.131-.625-.872 1.25M240 294.558c0 .205.9.853 2 1.442 1.105.591 2 .659 2 .152 0-.505-.9-1.154-2-1.442-1.1-.287-2-.356-2-.152m-4.637 2.703c.075.681-.313 1.239-.863 1.239s-.887-.337-.75-.75c.516-1.547-.72-.674-1.738 1.227-.89 1.663-.79 1.875.629 1.331 1.258-.483 1.481-.287.876.772-.646 1.132-.544 1.173.501.205 1.038-.961 1.558-.879 2.486.39.958 1.309 1.525 1.382 3.085.396 1.794-1.134 1.773-1.179-.339-.733-2.137.451-2.683-.251-2.342-3.013.08-.646-.266-1.428-.769-1.739-.502-.31-.851-.007-.776.675M461 297c-.901.582-1.025.975-.309.985.655.008 1.469-.435 1.809-.985.767-1.242.421-1.242-1.5 0m-25.977 1.377c-.562.562-1.009 1.496-.993 2.073.017.577.479.281 1.027-.658 1.004-1.723 3.943-1.421 3.943.405 0 .54-1.012 1.827-2.25 2.859-1.924 1.605-1.996 1.882-.5 1.911.962.018 1.75-.444 1.75-1.026 0-.582.52-.738 1.155-.346.768.475.88.271.335-.61-.607-.983-.352-1.146.987-.632 1.561.599 1.626.476.479-.906-1.078-1.299-1.086-1.749-.04-2.395.855-.529.255-.947-1.791-1.247-1.693-.248-3.539.009-4.102.572m9.203 1.202c.95.991 1.942 1.587 2.205 1.324.263-.263-.514-1.074-1.726-1.803-2.107-1.265-2.128-1.243-.479.479m-223.772.347c.307.497.032 1.079-.61 1.293-.643.214-1.287 1.194-1.432 2.177-.144.983-.033 1.559.246 1.279.28-.28.501-.883.491-1.342-.01-.458.906-1.327 2.034-1.931 1.814-.971 1.858-1.172.382-1.739-.918-.352-1.418-.234-1.111.263m22.279 2.198c.679.684 1.486.991 1.793.683.308-.308-.247-.867-1.233-1.243-1.425-.542-1.54-.428-.56.56M444.5 303c-.34.55-.141 1 .441 1s1.059-.45 1.059-1-.198-1-.441-1-.719.45-1.059 1m-214 1c-.34.55.11 1 1 1s1.34-.45 1-1c-.34-.55-.79-1-1-1-.21 0-.66.45-1 1m202.579.583c.048 1.165.285 1.402.604.605.289-.722.253-1.585-.079-1.917-.332-.332-.568.258-.525 1.312m18.524-.416c.283.458.938.833 1.456.833s.941-.375.941-.833c0-.459-.655-.834-1.456-.834-.801 0-1.224.375-.941.834m-206.224 1.212c.127.86.509 1.842.85 2.184.342.341.518-.083.392-.942-.127-.86-.509-1.842-.85-2.184-.342-.341-.518.083-.392.942m194.621.016c0 .743 4.01 1.398 4.427.723.236-.381-.664-.784-1.999-.895-1.335-.11-2.428-.033-2.428.172m9.298.236c.347.348.187 1.463-.356 2.478-.788 1.472-.679 1.727.535 1.262 1.776-.682 2.077-4.371.356-4.371-.641 0-.882.284-.535.631m-210.826 4.893c.019 2.172.438 3.063 1.289 2.737.85-.326 1.064.124.656 1.378-.483 1.484-.397 1.567.423.409.565-.799.835-1.764.6-2.145-.236-.382.295-.971 1.178-1.31 1.242-.477 1.347-.93.462-1.997-.63-.759-1.931-1.585-2.891-1.836-1.397-.366-1.74.185-1.717 2.764m214.489-1.597c.794 1.483.682 2.036-.484 2.399-1.054.327-.977.421.253.309.974-.09 1.696-.606 1.605-1.149-.091-.542.302-1.548.872-2.236.776-.934.493-1.25-1.12-1.25-1.82 0-1.996.301-1.126 1.927M436 308.75c0 .623.408 1.384.906 1.692.498.308.671 1.46.383 2.559-.287 1.099-.297 1.999-.022 1.999 1.253 0 1.319-3.846.095-5.52-.749-1.024-1.362-1.353-1.362-.73m4.624.789c-.965 2.514-.681 3.163.498 1.136.584-1.004.851-2.036.593-2.293-.257-.258-.749.263-1.091 1.157m2.955-.667c-.383.62-.22 1.128.362 1.128s1.095.788 1.138 1.75c.044.981.295 1.217.571.538.706-1.742-1.181-4.856-2.071-3.416m-210.106 1.172c-.758 1.226 1.269 3.97 2.899 3.926.621-.017.341-.489-.622-1.05-.963-.561-1.75-1.414-1.75-1.896 0-.483.787-1.083 1.75-1.335 1.578-.412 1.584-.468.059-.573-.93-.064-1.981.354-2.336.928m6.28.754c.401 1.046.753 1.183 1.016.395.221-.663.926-.906 1.566-.539.641.367.814.281.386-.189-1.454-1.598-3.616-1.355-2.968.333M458 309.393c0 .216.698.661 1.552.989.89.341 1.291.173.941-.393-.587-.951-2.493-1.406-2.493-.596m-239.664 2.276c.367.368-.12 1.605-1.084 2.75-1.751 2.079-1.75 2.079.498.176 2.457-2.08 2.913-3.595 1.083-3.595-.641 0-.865.301-.497.669M434 313c0 .55.45 1 1 1s1-.45 1-1-.45-1-1-1-1 .45-1 1m-215.02 2.524c-.696.838-1.071 1.718-.835 1.955.237.236.98-.449 1.651-1.524 1.452-2.325.968-2.58-.816-.431M250 316c-.901.582-1.025.975-.309.985.655.008 1.469-.435 1.809-.985.767-1.242.421-1.242-1.5 0m181.731.92c-.435 1.663-.305 2.054.437 1.312.582-.582.86-1.647.62-2.369-.25-.749-.703-.295-1.057 1.057m7.613-.465c.275.716-.005 1.806-.622 2.423s-.839 1.122-.493 1.122c.345 0 1.348-.72 2.227-1.599 1.328-1.328 1.866-1.379 3.169-.297 1.412 1.171 1.384 1.383-.278 2.113-1.402.615-1.193.722.868.442 1.493-.202 2.873.106 3.067.686.193.58.682.19 1.087-.865.405-1.056.426-1.609.047-1.229-.38.379-2.077-.297-3.771-1.504-3.592-2.558-6.013-3.148-5.301-1.292m-194.747.703c.495.8.02.975-1.54.567-1.24-.324-2.004-.339-1.698-.033.306.306-.437 1.362-1.652 2.346-1.214.985-1.821 2.166-1.348 2.626.473.46 1.54-.176 2.372-1.414 1.792-2.664 3.49-2.998 2.544-.5-.589 1.556-.496 1.583.837.25 2.386-2.386 3.065-5 1.298-5-.903 0-1.235.474-.813 1.158m-21.518 1.425c.048 1.165.285 1.402.604.605.289-.722.253-1.585-.079-1.917-.332-.332-.568.258-.525 1.312m14.428-.594c-.35.566.051.734.941.393 1.732-.665 2.049-1.382.611-1.382-.518 0-1.216.445-1.552.989m222.493.952c0 .518.445 1.216.989 1.552.566.35.734-.051.393-.941-.665-1.732-1.382-2.049-1.382-.611m-241.187.742c.721.289 1.584.253 1.916-.079.332-.332-.258-.568-1.312-.525-1.165.048-1.402.285-.604.604M233 320.941c0 .518.375 1.173.833 1.456.459.283.834-.14.834-.941 0-.801-.375-1.456-.834-1.456-.458 0-.833.423-.833.941m217.667-.274c-.367.366-.667 1.298-.667 2.071 0 1.118.33 1.074 1.619-.214.891-.891 1.89-1.348 2.221-1.017.331.331.005.971-.726 1.422-.936.579-.999 1.024-.214 1.509 1.301.804 2.579-1.854 1.63-3.39-.73-1.18-2.855-1.39-3.863-.381m-16.124 1.264c-.317.512-.118 1.213.441 1.559.559.345 1.016-.074 1.016-.931 0-1.757-.6-2.015-1.457-.628m-4.229 1.819c-.342.962-.758 2.012-.924 2.333-.166.321.261.584.95.584.688 0 1.338-1.05 1.444-2.334.228-2.749-.584-3.071-1.47-.583m7.396.25c.288 1.1.893 2 1.344 2 .452 0 .754-.9.671-2-.083-1.1-.688-2-1.344-2-.701 0-.978.825-.671 2m21.29-.441c0 .857-.45 1.281-1 .941-.55-.34-1-.141-1 .441s.675 1.059 1.5 1.059c.833 0 1.5-.889 1.5-2 0-1.1-.225-2-.5-2s-.5.702-.5 1.559M241.5 324c-.34.55-.141 1 .441 1s1.059-.45 1.059-1-.198-1-.441-1-.719.45-1.059 1m203.187-.25c-.237.413.352 1.554 1.309 2.536 1.665 1.709 1.719 1.676 1.256-.75-.471-2.463-1.689-3.311-2.565-1.786m-226.144 1.181c-.317.512-.193 1.167.274 1.456.467.289.85-.13.85-.931 0-1.686-.316-1.833-1.124-.525m13.683-.081c-2.204.63-2.181.692.75 1.984 1.663.733 3.024 1.997 3.024 2.809 0 .811.45 1.197 1 .857.55-.34 1-.066 1 .608 0 .674.305.921.677.548.373-.372-.534-1.941-2.014-3.486-1.48-1.545-2.385-3.115-2.01-3.489.374-.375.493-.636.264-.581-.229.055-1.44.392-2.691.75M227.5 326c.34.55.816 1 1.059 1s.441-.45.441-1-.477-1-1.059-1-.781.45-.441 1m16.5 1c-.589 1.1-.845 2-.57 2s.981-.9 1.57-2c.589-1.1.845-2 .57-2s-.981.9-1.57 2m-6-.262c0 .223.647 1.052 1.439 1.843 1.251 1.252 1.42 1.199 1.299-.404-.112-1.486-2.738-2.866-2.738-1.439m10.882.012a5.707 5.707 0 000 1.5c.065.413-.53.75-1.323.75-.793 0-1.65.337-1.904.75-.255.413.528.75 1.74.75 1.62 0 2.205-.597 2.205-2.25 0-2.136-.465-3.106-.718-1.5m-27.149 1.374c.679.684 1.486.991 1.793.683.308-.308-.247-.867-1.233-1.243-1.425-.542-1.54-.428-.56.56m213.832-.229c-.305.493.096 1.145.89 1.449.963.37 1.258.072.887-.895-.645-1.68-1.011-1.794-1.777-.554M430 329.5c0 .825.675 1.5 1.5 1.5s1.5.48 1.5 1.067c0 .613-.853.797-2 .433-1.192-.378-2-.18-2 .492 0 .619-.445.851-.989.515-.58-.359-.725.074-.351 1.051.588 1.531.714 1.526 1.606-.069.792-1.415 1.132-1.48 1.87-.359.743 1.128 1.135 1.067 2.218-.345 1.046-1.364 1.595-1.467 2.683-.5 1.146 1.019 1.158.939.074-.496-.71-.941-2.263-2.021-3.451-2.398-2.114-.672-2.118-.703-.16-1.469 1.893-.74 1.88-.785-.25-.852-1.365-.042-2.25.52-2.25 1.43m10 1.5c0 .55.477 1 1.059 1s.781-.45.441-1-.816-1-1.059-1-.441.45-.441 1m-198.211 1.587c1.207 2.156 3.878 2.708 3.878.8 0-.763-.21-1.178-.465-.922-.256.255-1.35-.009-2.433-.588-1.71-.916-1.838-.823-.98.71m212.754-.656c-.317.512-.193 1.167.274 1.456.467.289.85-.13.85-.931 0-1.686-.316-1.833-1.124-.525M249 333c0 .55.338.947.75.882 1.93-.305 2.395.239 1.315 1.539-.969 1.168-.806 1.324.918.873 1.983-.518 2.005-.65.402-2.421-1.853-2.048-3.385-2.443-3.385-.873m9 0c0 .55.477 1 1.059 1s.781-.45.441-1-.816-1-1.059-1-.441.45-.441 1m199.333.484c0 1.124.324 1.215 1.334.378.733-.609 1.333-1.277 1.333-1.484 0-.208-.6-.378-1.333-.378-.734 0-1.334.668-1.334 1.484m-224.318.066c-.018 1.272 2.045 3.45 3.268 3.45.486 0 .722-.484.525-1.075-.197-.591-.746-1.003-1.221-.915-.475.089-1.244-.44-1.71-1.175-.465-.734-.853-.862-.862-.285m5.798.133c.721.289 1.584.253 1.916-.079.332-.332-.258-.568-1.312-.525-1.165.048-1.402.285-.604.604m199.202.067c.009.413.452 1.425.985 2.25.784 1.213.972 1.069.985-.75.008-1.238-.435-2.25-.985-2.25s-.993.337-.985.75M257 336c-.901.582-1.025.975-.309.985.655.008 1.469-.435 1.809-.985.767-1.242.421-1.242-1.5 0m178.7.339c-.28.73.123 1.328.895 1.328 1.575 0 1.879-1.256.51-2.102-.493-.305-1.125.044-1.405.774m-188.071 2.138c.322.838 1.212 1.523 1.978 1.523 1.953 0 1.734-.747-.584-1.988-1.614-.863-1.87-.778-1.394.465M427.5 338c.34.55.816 1 1.059 1s.441-.45.441-1-.477-1-1.059-1-.781.45-.441 1m-188.995.992c-.337.546-.195 1.739.316 2.652.756 1.351.929 1.166.929-.992 0-2.85-.279-3.223-1.245-1.66M431 338.378c0 .342.9 1.522 2 2.622 1.1 1.1 1.964 2.563 1.921 3.25-.063 1-.18 1-.583 0-.739-1.831-1.684-1.537-3.215 1-.906 1.5-.945 1.86-.119 1.078.682-.644 1.788-.961 2.458-.704.67.257 1.795-.228 2.5-1.078.83-1 .897-1.546.192-1.546-.6 0-.833-.672-.518-1.494.316-.822.976-1.246 1.469-.941.492.304.895.079.895-.5s-1.012-.887-2.25-.684c-1.238.202-2.812-.081-3.5-.629-.687-.548-1.25-.717-1.25-.374m23.756.286c.691.279.959.988.596 1.576-.391.632-.189.777.493.355 1.745-1.078 1.384-2.605-.595-2.516-1.056.048-1.252.28-.494.585M258 341c-.901.582-1.025.975-.309.985.655.008 1.469-.435 1.809-.985.767-1.242.421-1.242-1.5 0m166.5 0c-.34.55-.254 1.007.191 1.015.445.009.134.493-.691 1.076-1.173.83-1.192.978-.087.681.777-.209 1.524-1.144 1.661-2.076.28-1.908-.152-2.188-1.074-.696m-195.122 1.198c-.397.641-.235.832.382.45.588-.363 1.25-.117 1.472.547.282.848.603.881 1.079.111.373-.603.02-1.349-.785-1.658-.804-.308-1.771-.061-2.148.55m13.622.109c0 .499.787.633 1.75.298 1.533-.535 1.519-.431-.118.839-1.806 1.401-1.8 1.444.18 1.295 1.127-.085 1.829-.511 1.56-.947-.27-.435-.013-.792.569-.792s1.059-.36 1.059-.8c0-.44-1.125-.8-2.5-.8s-2.5.408-2.5.907m199.583-.441c-.431.697-.513 1.537-.183 1.867.895.895 1.871-.421 1.387-1.871-.338-1.016-.574-1.016-1.204.004m10.496-.175c-.114 1.721 1.656 2.548 2.506 1.171.432-.698.292-.904-.345-.51-.588.363-1.297.095-1.576-.596-.362-.899-.529-.917-.585-.065m-34.647 1.198c.407.659.154 1.966-.563 2.905-.717.938-.909 1.372-.428.965.481-.408 1.591-.205 2.467.451 1.298.974 1.376.949.42-.13-.644-.728-.951-1.898-.682-2.601.27-.702-.06-1.617-.732-2.032-.798-.493-.966-.34-.482.442m-163.353 1.694c.048 1.165.285 1.402.604.605.289-.722.253-1.585-.079-1.917-.332-.332-.568.258-.525 1.312M450.5 344c-.34.55-.141 1 .441 1s1.059-.45 1.059-1-.198-1-.441-1-.719.45-1.059 1m-212.569 1.25c-.038.688-.217 2.6-.399 4.25-.181 1.65-.113 2.438.153 1.75.265-.687 1.457-1.257 2.648-1.265 1.597-.012 1.81-.242.81-.875-.851-.54-1.106-1.652-.683-2.985.492-1.55.25-2.125-.893-2.125-.862 0-1.598.563-1.636 1.25m-12.931.128c0 .207.787.995 1.75 1.75 1.586 1.243 1.621 1.208.378-.378-1.307-1.666-2.128-2.195-2.128-1.372m211.981 1.145c-1.057 1.273-.995 1.42.378.893.902-.347 1.641-1.032 1.641-1.523 0-1.286-.579-1.105-2.019.63m-188.474.466c-.35.566.051.734.941.393 1.732-.665 2.049-1.382.611-1.382-.518 0-1.216.445-1.552.989m3.826.467c0 .801.375 1.224.834.941.458-.283.833-.938.833-1.456s-.375-.941-.833-.941c-.459 0-.834.655-.834 1.456M446.5 347c.34.55.816 1 1.059 1s.441-.45.441-1-.477-1-1.059-1-.781.45-.441 1m-191.421 1.583c.048 1.165.285 1.402.604.605.289-.722.253-1.585-.079-1.917-.332-.332-.568.258-.525 1.312m173.559-.083c.317.825 1.033 1.5 1.591 1.5.586 0 .489-.635-.229-1.5-.685-.825-1.401-1.5-1.591-1.5-.19 0-.087.675.229 1.5m-16.074 1.207c-.542 1.425-.428 1.54.56.56.684-.679.991-1.486.683-1.793-.308-.308-.867.247-1.243 1.233m-168.81 1.46c.264 1.008.599 1.833.746 1.833.147 0 .482-.825.746-1.833.272-1.042-.05-1.834-.746-1.834s-1.018.792-.746 1.834m176.996-1.505c.688.278 1.813.278 2.5 0 .688-.277.125-.504-1.25-.504s-1.937.227-1.25.504m-2.509.836c.408.45.274 1.382-.298 2.071-.721.868-.718 1.452.008 1.901.577.356 1.083.509 1.126.339.659-2.663.542-3.917-.416-4.465-.639-.366-.827-.296-.42.154m-146.162 2.085c.048 1.165.285 1.402.604.605.289-.722.253-1.585-.079-1.917-.332-.332-.568.258-.525 1.312m162.379-.516c-.529.858-.357.989.557.423.996-.615 1.144-.343.596 1.096-.585 1.535-.48 1.667.53.664.907-.9.955-1.554.172-2.337-.783-.783-1.302-.74-1.855.154m6.198.478c.304.794.956 1.195 1.449.89 1.24-.766 1.126-1.132-.554-1.777-.967-.371-1.265-.076-.895.887M250 352.833c0 .459.655.834 1.456.834.801 0 1.224-.375.941-.834-.283-.458-.938-.833-1.456-.833s-.941.375-.941.833M242.06 354a88.377 88.377 0 01-.557 3.312c-.189.996.321 2.067 1.134 2.379.813.312 1.244 1.177.958 1.923-.286.745.318 1.804 1.342 2.352 1.376.737 2.003.632 2.4-.402.295-.769-.21-1.685-1.122-2.035-1.394-.535-1.431-.777-.235-1.517.784-.484 1.896-.619 2.472-.299.577.319.505-.007-.16-.724-.978-1.056-1.498-1.063-2.738-.034-1.683 1.397-2.074.859-2.869-3.955-.227-1.375-.508-1.825-.625-1m4.812.75c-1.243 1.586-1.208 1.621.378.378 1.666-1.307 2.195-2.128 1.372-2.128-.207 0-.995.788-1.75 1.75m11.623 1.265c-.351 1.108-1.009 1.785-1.462 1.505-.453-.28-1.073.141-1.377.935-.359.934-.072 1.258.814.918.753-.289 2.591.276 4.085 1.255 2.705 1.772 2.711 1.771 1.381-.359-.735-1.177-1.696-1.917-2.136-1.645-1.266.782-.93-2.094.4-3.424.854-.854.873-1.2.067-1.2-.623 0-1.42.907-1.772 2.015m6.008-.161c-.303.788-.314 1.668-.027 1.956.288.288.524-.032.524-.711 0-.779.738-1 2-.599 1.395.443 2 .18 2-.87 0-1.913-3.749-1.725-4.497.224m-15.17.646c0 .825.375 1.5.834 1.5.458 0 .833-.675.833-1.5s-.375-1.5-.833-1.5c-.459 0-.834.675-.834 1.5m4.167.5c.34.55.816 1 1.059 1s.441-.45.441-1-.477-1-1.059-1-.781.45-.441 1m158.567.42c-.937 1.128-.857 1.372.387 1.19.862-.127 2.102-.766 2.756-1.42.92-.92.832-1.19-.388-1.19-.867 0-2.107.639-2.755 1.42m396.392 1.4c-4.563 2.14-9.092 7.022-10.209 11.007-.984 3.509-.972 40.879.014 44.405 1.059 3.782 6.556 9.795 10.438 11.417 6.374 2.663 16.149.617 20.51-4.294 4.193-4.722 4.788-8.435 4.788-29.863 0-18.665-.187-20.939-2.02-24.531-4.156-8.147-15.29-12-23.521-8.141m-551.889 2.067c-.301.487.235 1.5 1.191 2.25 1.536 1.204 1.594 1.177.498-.229-.683-.876-.946-1.888-.584-2.25.362-.362.385-.658.051-.658-.335 0-.855.399-1.156.887m152.794.607c-.316.822-.976 1.246-1.469.941-.492-.304-.895-.076-.895.506 0 1.769 1.862 1.185 3-.941.589-1.1.815-2 .504-2-.312 0-.825.672-1.14 1.494m-158.761.339c-.283.459.12.834.897.834s1.18-.375.897-.834c-.283-.458-.687-.833-.897-.833-.21 0-.614.375-.897.833m2.856 2.234c-.363.586-.389 1.336-.059 1.666.33.33.6.049.6-.625s.45-.948 1-.608c.55.34 1 .141 1-.441 0-1.373-1.691-1.368-2.541.008m151.208-.4c-1.095 1.094-.76 2 .738 2 .772 0 1.174-.6.893-1.334-.586-1.526-.718-1.58-1.631-.666m-4.103 1.626c.376.986.935 1.541 1.243 1.233.308-.307.001-1.114-.683-1.793-.988-.98-1.102-.865-.56.56M236.5 367c.34.55.816 1 1.059 1s.441-.45.441-1-.477-1-1.059-1-.781.45-.441 1m158.833.456c0 .801.383 1.22.85.931.467-.289.591-.944.274-1.456-.808-1.308-1.124-1.161-1.124.525m9.305 2.044c.317.825.753 1.5.969 1.5.216 0 .393-.675.393-1.5s-.436-1.5-.969-1.5c-.532 0-.709.675-.393 1.5m-3.138.5c-.34.55.11 1 1 1s1.34-.45 1-1c-.34-.55-.79-1-1-1-.21 0-.66.45-1 1M245 372c.589 1.1 1.237 2 1.442 2 .204 0 .135-.9-.152-2-.288-1.1-.937-2-1.442-2-.507 0-.439.895.152 2m2-.559c0 .857.45 1.559 1 1.559s1-.423 1-.941-.45-1.219-1-1.559c-.55-.34-1 .084-1 .941m106.139.645c-1.298 1.053-1.973 1.9-1.5 1.882 1.221-.045 4.802-2.861 4.288-3.372-.235-.233-1.489.437-2.788 1.49m43.026-.209c-1.021.647-.862.969.676 1.371 1.43.374 1.856.126 1.477-.861-.622-1.62-.461-1.582-2.153-.51m-148.444 2.113c-2.429 1.501-2.586 1.877-1.25 2.986 1.489 1.235 1.643 1.153 1.904-1.012.069-.571.787-1.446 1.596-1.946s1.259-1.097 1-1.327c-.259-.23-1.721.355-3.25 1.299m144.092-1.307c.721.289 1.584.253 1.916-.079.332-.332-.258-.568-1.312-.525-1.165.048-1.402.285-.604.604M403 373.882c0 .55.45 1.278 1 1.618.55.34 1 .168 1-.382s-.45-1.278-1-1.618c-.55-.34-1-.168-1 .382m200.5.213c-16.253.873-26.018 3.127-36.572 8.441-19.52 9.83-29.032 29.093-27.625 55.944.74 14.121 3.435 24.514 9.601 37.02 13.272 26.923 38.272 44.317 66.343 46.161 14.825.974 29.771-2.736 43.53-10.806 8.527-5.001 23.86-20.821 28.952-29.872 17.852-31.726 16.191-71.88-3.735-90.328-10.231-9.472-25.664-15.221-43.494-16.202-18.985-1.045-23.419-1.087-37-.358m-346.391 1.274c-.835 1.005-.878 1.656-.141 2.111.585.362.806 1.077.489 1.589-.316.512-.151.931.367.931 1.269 0 2.319-4.257 1.301-5.275-.445-.445-1.353-.156-2.016.644m-7.109.69c0 .582.45.781 1 .441s1-.816 1-1.059-.45-.441-1-.441-1 .477-1 1.059m3 0c0 .582.45.781 1 .441s1-.816 1-1.059-.45-.441-1-.441-1 .477-1 1.059m143 0c0 .582.463.773 1.028.424.565-.35 1.882.411 2.926 1.691 1.742 2.136 1.954 2.18 2.595.533.848-2.179-.336-3.67-1.464-1.844-.636 1.028-.935.969-1.414-.279-.676-1.761-3.671-2.19-3.671-.525M251.429 380c0 1.295.338 1.633.985.986.648-.648.648-1.324 0-1.972-.647-.647-.985-.309-.985.986m126.03.067c-.363.586-.445 1.281-.183 1.543s.743-.218 1.069-1.067c.676-1.762.1-2.072-.886-.476m18.402 1.009c-1.299 1.142-1.748 1.759-.999 1.372.752-.389 1.778-.087 2.292.674.704 1.043.859.892.638-.622-.18-1.235.215-1.895 1.032-1.725.729.151 1.04-.187.691-.75-.845-1.368-.931-1.343-3.654 1.051M374.5 382c.995 1.1 1.969 2 2.163 2 .195 0-.208-.9-.895-2s-1.661-2-2.164-2c-.502 0-.099.9.896 2m8.5-1.004c0 .587.73 1.347 1.622 1.689 1.384.531 1.275.895-.75 2.482-1.992 1.561-2.052 1.749-.372 1.169 1.1-.38 2.346-1.173 2.768-1.763.507-.708 1.12-.477 1.8.677.567.962 1.456 1.75 1.975 1.75.519 0-.066-1.166-1.3-2.592-2.726-3.151-5.743-4.943-5.743-3.412m-127.311.698c-.373.603.107 1.402 1.067 1.776 1.593.62 1.556.832-.426 2.45l-2.17 1.771 4.42 2.033 4.42 2.033-.015-2.628c-.009-1.446-.346-2.179-.75-1.629-.404.55-1.41.939-2.235.865-.825-.074-2.118-.186-2.872-.25-1.145-.096-1.152-.381-.044-1.716 1.503-1.811 2.175-4.677.914-3.898-.455.282-1.008-.032-1.23-.696-.282-.848-.603-.881-1.079-.111m124.311.267c0 .529-.98 1.874-2.177 2.989-2.343 2.183-1.956 3.338 1.197 3.57 2.198.162 2.681-1.069.73-1.861-.941-.381-.879-.769.25-1.568.825-.583 1.107-1.067.628-1.076-.48-.008-.313-.69.372-1.515.86-1.036.898-1.5.122-1.5-.617 0-1.122.432-1.122.961m9.564.332c.376.986.935 1.541 1.243 1.233.308-.307.001-1.114-.683-1.793-.988-.98-1.102-.865-.56.56M361 385c0 .55.477 1 1.059 1s.781-.45.441-1-.816-1-1.059-1-.441.45-.441 1m-3 .941c0 .518.445 1.216.989 1.552.566.35.734-.051.393-.941-.665-1.732-1.382-2.049-1.382-.611m14.333.559c0 .72.6 1.079 1.334.798.733-.282 1.333-.641 1.333-.798 0-.157-.6-.516-1.333-.798-.734-.281-1.334.078-1.334.798m19.746.083c.048 1.165.285 1.402.604.605.289-.722.253-1.585-.079-1.917-.332-.332-.568.258-.525 1.312M264.5 387c.34.55.816 1 1.059 1s.441-.45.441-1-.477-1-1.059-1-.781.45-.441 1m104.5.059c0 .582.45.781 1 .441s1-.816 1-1.059-.45-.441-1-.441-1 .477-1 1.059m15.625.745a10.46 10.46 0 011.474 1.53c.343.458.861.213 1.152-.546.333-.867-.214-1.435-1.474-1.53-1.102-.083-1.62.163-1.152.546M398.232 389c-1.008 1.614-.999 2 .047 2 .712 0 1.363-.9 1.446-2 .083-1.1.062-2-.047-2-.108 0-.759.9-1.446 2m-43.309-.789c-.69 2.612-.502 3.789.606 3.789 2.026 0 2.44-1.334.866-2.789-.767-.71-1.429-1.16-1.472-1m6.41 1.273c0 1.203.289 1.25 1.521.25 1.271-1.032 1.413-.947.865.516-.361.962-.268 1.75.205 1.75 1.604 0 1.961-2.83.431-3.417-2.356-.904-3.022-.706-3.022.901m4.879 2.162c-1.259 1.436-2.126 2.773-1.928 2.972.551.551 4.716-3.562 4.716-4.657 0-1.371-.232-1.23-2.788 1.685m4.352-1.353c.376.986.935 1.541 1.243 1.233.308-.307.001-1.114-.683-1.793-.988-.98-1.102-.865-.56.56m11.769.163c0 .801.383 1.22.85.931.467-.289.591-.944.274-1.456-.808-1.308-1.124-1.161-1.124.525m-5.842 2.369c.271.27-.01 1.095-.622 1.833-.613.738-.717 1.342-.232 1.342s1.397-.825 2.027-1.833c.906-1.451.852-1.834-.26-1.834-.772 0-1.183.221-.913.492M389.5 393c.34.55.816 1 1.059 1s.441-.45.441-1-.477-1-1.059-1-.781.45-.441 1m-32.167 1.544c0 .801.375 1.456.834 1.456.458 0 .833-.423.833-.941s-.375-1.173-.833-1.456c-.459-.283-.834.14-.834.941M393 394c-.825.533-1.05.969-.5.969s1.675-.436 2.5-.969c.825-.533 1.05-.969.5-.969s-1.675.436-2.5.969m-24 .937c0 .649-.45.903-1 .563-1.266-.782-1.266.542 0 2.5.804 1.245.976 1.16 1.007-.5.034-1.838.192-1.798 1.947.485 1.05 1.367 2.24 2.154 2.644 1.75.405-.404.21-.735-.431-.735-.642 0-1.167-.388-1.167-.861 0-.474 1.012-.761 2.25-.638s1.456.028.485-.21c-.97-.239-1.463-.921-1.095-1.517.407-.66.201-.793-.529-.342-.659.407-1.854.196-2.655-.468-1.104-.917-1.456-.924-1.456-.027m11.776.239c.859.859.88 1.534.078 2.5-.604.728-.764 1.324-.354 1.324.41 0 .185.675-.5 1.5-1.036 1.248-.909 1.5.755 1.5 2.622 0 4.837-2.516 3.139-3.565-.72-.445-.942-.322-.554.306.357.577.02 1.29-.747 1.585-1.708.655-1.514-1.511.334-3.737 1.022-1.232 1.662-1.345 2.706-.479.847.703 1.367.749 1.367.119 0-1.564-2.622-2.207-3.878-.951-.829.829-1.122.809-1.122-.078 0-.66-.54-1.2-1.2-1.2-.92 0-.925.275-.024 1.176m15.761.763c-.319.517.329.871 1.441.788 1.112-.084 2.022-.507 2.022-.94 0-1.106-2.76-.984-3.463.152M357 399c-.589 1.1-.845 2-.57 2s.981-.9 1.57-2c.589-1.1.845-2 .57-2s-.981.9-1.57 2m5.507-.011c-.35.566.051.734.941.393 1.732-.665 2.049-1.382.611-1.382-.518 0-1.216.445-1.552.989m10.133 5.991c1.775 3.557 3.624 4.962 3.177 2.413-.29-1.651-3.232-5.393-4.24-5.393-.233 0 .245 1.341 1.063 2.98m20.801-1.425c-1.83 1.467-1.798 1.487.559.365 3.061-1.458 3.628-1.92 2.358-1.92-.537 0-1.849.7-2.917 1.555m-15.441.538c0 1.361 2.872 1.766 3.883.548.772-.931.415-1.241-1.427-1.241-1.351 0-2.456.312-2.456.693m-26.224 3.656c-.313 1.197.01 1.918.861 1.918 1.564 0 1.683-.613.486-2.502-.652-1.029-.96-.896-1.347.584m11.314-.358c-1.105 1.332-1.05 1.687.341 2.221 2.104.807 2.487.352 1.646-1.959-.607-1.67-.797-1.695-1.987-.262m238.103 3.61c-19.887 2.097-25.208 6.898-25.178 22.717.031 16.37 5.811 30.28 16.746 40.3 8.854 8.113 14.862 10.414 27.239 10.432 8.22.012 10.275-.347 15.253-2.664 16.788-7.815 27.827-26.646 28.013-47.786.126-14.267-2.924-18.521-15.398-21.478-7.77-1.841-35.168-2.734-46.675-1.521m-237.526 1.666c-.367.366-.667 1.321-.667 2.122 0 1.136.308 1.2 1.403.292 1.077-.894 1.517-.865 1.898.127.272.711.445.28.384-.958-.107-2.167-1.634-2.968-3.018-1.583M354 415c-1.09.704-1.142.974-.191.985.72.008 1.031.465.691 1.015-.34.55-.141 1 .441 1s1.059-.9 1.059-2c0-2.294.002-2.294-2-1m6.138.333c-.827.997-.773 1.334.211 1.334.725 0 1.318-.6 1.318-1.334 0-.733-.095-1.333-.211-1.333-.116 0-.709.6-1.318 1.333m10.862.06c0 .216.698.661 1.552.989.89.341 1.291.173.941-.393-.587-.951-2.493-1.406-2.493-.596M356 419c-.901.582-1.025.975-.309.985.655.008 1.469-.435 1.809-.985.767-1.242.421-1.242-1.5 0M42.558 821.75c4.83 13.649 14.001 36.788 18.624 46.988 2.562 5.653 3.366 6.51 8.572 9.137 16.913 8.536 36.392 9.055 53.481 1.425 8.177-3.65 8.728-4.702 3.539-6.755-6.546-2.59-25.078-13.083-36.774-20.822-13.343-8.828-31.014-23.106-42.246-34.135-4.81-4.723-8.962-8.588-9.226-8.588-.265 0 1.549 5.737 4.03 12.75m1148.129-3.121c-19.677 18.961-45.294 37.301-69.036 49.424-6.945 3.546-12.633 6.702-12.639 7.013-.022 1.052 7.45 4.736 13.988 6.897 14.443 4.774 31.635 3.444 45.835-3.546 7.125-3.507 7.422-3.802 10.343-10.264 8.539-18.889 22.176-55.328 21.611-57.744-.159-.68-4.705 3.019-10.102 8.22m-989.561 81.467c3.707 6.73 14.573 17.64 21.804 21.893 13.189 7.758 30.894 10.556 45.07 7.124 8.02-1.941 18.647-7.291 25.425-12.799 5.349-4.346 16.597-18.631 15.515-19.704-.242-.24-6.29.488-13.44 1.617-17.981 2.84-61.937 3.103-80.5.482-6.875-.971-13.343-2.026-14.374-2.344-1.71-.528-1.666-.201.5 3.731m730.979-.049c3.47 6.283 13.156 16.311 20.252 20.967 23.257 15.26 55.868 11.83 75.657-7.959 5.896-5.896 12.888-15.599 11.857-16.453-.204-.17-5.996.589-12.871 1.685-23.338 3.721-76.612 2.613-94.889-1.974l-2.402-.603 2.396 4.337m-384.13 146.739c-8.926 14.717-25.267 38.186-37.359 53.653-5.564 7.116-10.432 13.45-10.818 14.076-.511.827.716.943 4.5.424 14.124-1.935 25.138-7.382 35.252-17.433 13.923-13.836 20.613-33.753 17.512-52.137-.642-3.806-1.492-7.447-1.89-8.09-.437-.707-3.282 3.051-7.197 9.507m135.636-8.722c-1.722 5.827-1.83 23.4-.188 30.371 5.207 22.1 22.21 39.335 44.435 45.043 3.497.898 7.592 1.495 9.1 1.327 2.687-.299 2.554-.545-6.655-12.305-11.575-14.781-23.088-31.229-34.484-49.263-12.008-19.003-11.327-18.157-12.208-15.173" fill="undefined" fill-rule="evenodd"/></svg>